<?xml version="1.0" standalone="no"?>
<!DOCTYPE svg PUBLIC "-//W3C//DTD SVG 20010904//EN"
 "http://www.w3.org/TR/2001/REC-SVG-20010904/DTD/svg10.dtd">
<svg version="1.0" xmlns="http://www.w3.org/2000/svg"
 width="1024.000000pt" height="1024.000000pt" viewBox="0 0 1024.000000 1024.000000"
 preserveAspectRatio="xMidYMid meet">

<g transform="translate(0.000000,1024.000000) scale(0.100000,-0.100000)"
fill="#000000" stroke="none">
<path d="M4999 9697 c-47 -94 -92 -186 -98 -204 -7 -17 -21 -39 -32 -49 -10
-9 -19 -23 -19 -29 0 -7 -9 -24 -20 -38 -11 -14 -20 -32 -20 -41 0 -9 -7 -19
-15 -23 -19 -7 -48 -60 -41 -72 3 -5 -4 -12 -17 -16 -20 -6 -20 -7 11 -16 17
-5 32 -12 32 -15 0 -13 -26 -30 -40 -27 -9 3 -5 -4 8 -15 12 -11 22 -26 22
-34 0 -10 -3 -9 -10 2 -9 13 -12 13 -25 -3 -7 -11 -11 -25 -8 -33 3 -8 0 -14
-7 -14 -7 0 -10 -7 -6 -15 3 -9 -1 -18 -9 -21 -8 -4 -15 -13 -15 -21 0 -8 -5
-11 -12 -7 -7 5 -8 3 -3 -5 10 -17 -25 -80 -42 -74 -8 3 -13 -2 -13 -12 0 -13
-6 -16 -24 -11 -20 5 -28 0 -46 -31 -12 -20 -19 -45 -17 -55 4 -13 0 -18 -14
-18 -11 0 -19 -7 -19 -16 0 -8 -4 -12 -10 -9 -5 3 -10 0 -10 -8 0 -10 -7 -13
-20 -10 -32 8 -24 -23 9 -38 19 -9 29 -20 29 -36 0 -13 -4 -23 -9 -23 -5 0 -9
8 -9 18 0 14 -4 12 -20 -8 -10 -14 -22 -21 -26 -17 -4 4 -12 3 -18 -2 -6 -5
-40 -16 -75 -25 -36 -9 -69 -20 -75 -25 -6 -5 -31 -12 -56 -16 -25 -4 -51 -12
-58 -18 -7 -5 -15 -7 -19 -4 -3 4 -18 0 -32 -7 -14 -7 -53 -24 -86 -36 -78
-29 -161 -66 -205 -91 -82 -46 -124 -63 -128 -51 -4 14 -32 16 -32 2 0 -5 5
-10 12 -10 6 0 3 -9 -7 -20 -10 -11 -24 -20 -30 -20 -7 0 -18 -7 -25 -15 -7
-8 -19 -15 -27 -15 -9 0 -13 6 -9 15 3 8 1 15 -4 15 -6 0 -10 -11 -10 -24 0
-13 -7 -29 -15 -36 -8 -7 -15 -9 -15 -5 0 4 -10 -4 -21 -19 -12 -15 -27 -25
-35 -22 -7 3 -15 0 -18 -7 -2 -7 -5 -4 -5 6 -1 9 5 17 12 17 8 0 7 4 -3 11
-12 8 -12 10 5 8 33 -2 41 1 26 10 -11 7 -6 18 26 50 22 23 45 41 50 41 6 0
13 7 17 15 3 8 12 15 21 15 8 0 24 9 35 20 11 11 27 20 35 20 8 0 15 5 15 11
0 5 14 15 30 20 17 6 30 17 30 25 0 7 9 18 20 24 23 13 191 49 244 52 19 2 38
8 40 15 7 16 -96 55 -136 52 -18 -2 -39 0 -46 5 -14 9 -54 -2 -64 -18 -5 -6
-8 -2 -8 12 0 12 -4 22 -10 22 -5 0 -10 -9 -10 -19 0 -16 -6 -19 -32 -15 -23
2 -39 -3 -55 -18 -13 -12 -35 -22 -50 -23 -37 0 -43 -25 -6 -25 15 0 37 -7 47
-15 11 -8 14 -15 8 -15 -7 0 -12 -7 -12 -16 0 -13 -5 -12 -26 5 -30 24 -54 27
-73 9 -11 -10 -14 -10 -18 0 -7 19 -23 14 -23 -8 0 -11 5 -20 10 -20 6 0 10
-5 10 -10 0 -7 -13 -8 -35 -4 -28 5 -35 3 -35 -10 0 -9 -5 -16 -11 -16 -5 0
-7 -4 -4 -10 4 -6 -3 -9 -16 -7 -16 1 -27 -6 -36 -23 -7 -14 -13 -20 -13 -15
0 6 -5 2 -11 -8 -7 -12 -17 -15 -35 -11 -19 5 -24 2 -24 -12 0 -16 -2 -17 -10
-4 -9 13 -14 11 -33 -12 -13 -16 -27 -28 -32 -28 -15 0 -70 -52 -78 -73 -3 -9
-17 -22 -30 -28 -13 -6 -39 -35 -58 -65 -19 -29 -42 -56 -51 -59 -10 -4 -18
-14 -18 -23 -1 -9 -7 -28 -16 -42 l-15 -25 7 25 c6 22 5 23 -10 11 -9 -7 -16
-22 -16 -33 0 -20 1 -20 48 -1 6 3 12 0 12 -6 0 -6 -7 -11 -15 -11 -8 0 -15
-4 -15 -10 0 -5 -7 -10 -16 -10 -20 0 -44 -24 -44 -44 0 -8 -4 -18 -10 -21
-15 -9 -12 -25 5 -25 8 0 15 -5 15 -11 0 -6 -6 -9 -14 -6 -16 6 -40 -46 -28
-59 4 -3 -5 -5 -20 -2 -15 3 -25 1 -22 -3 3 -5 -2 -9 -10 -9 -18 0 -22 -25 -6
-33 6 -3 5 -4 -2 -3 -7 2 -24 -11 -37 -28 -19 -26 -22 -27 -16 -8 6 22 5 22
-14 10 -23 -14 -24 -16 -22 -73 0 -28 -2 -36 -9 -25 -12 19 -22 8 -42 -45 -9
-22 -28 -66 -42 -97 -14 -31 -26 -60 -26 -63 0 -4 -6 -21 -14 -38 -8 -18 -26
-63 -41 -102 -14 -38 -34 -87 -42 -108 -9 -21 -17 -63 -18 -94 -2 -47 -5 -58
-23 -64 -29 -11 -36 -43 -16 -74 15 -23 15 -27 0 -60 -9 -19 -21 -35 -25 -35
-14 0 -23 -32 -12 -43 7 -7 15 -6 26 3 8 7 15 9 15 6 0 -12 -28 -36 -40 -36
-8 0 -10 -9 -6 -24 4 -15 1 -28 -6 -33 -7 -4 -17 -16 -23 -25 -5 -9 -28 -43
-50 -75 -22 -32 -39 -61 -37 -65 1 -5 -3 -8 -8 -8 -6 0 -10 -5 -10 -10 0 -20
24 -37 45 -32 16 3 14 -2 -12 -27 -35 -34 -43 -37 -43 -17 0 18 -50 14 -80 -7
-17 -12 -27 -13 -36 -6 -7 6 -18 8 -24 4 -19 -12 -83 17 -128 59 -54 49 -53
47 15 -119 75 -181 110 -245 130 -239 13 4 14 3 5 -3 -7 -5 -10 -17 -6 -26 8
-21 24 -22 24 -3 0 9 7 12 20 9 12 -3 20 0 20 8 0 8 8 4 20 -9 12 -12 27 -22
34 -22 8 0 17 -7 20 -16 4 -12 14 -15 34 -11 15 3 35 1 45 -5 12 -6 23 -6 31
1 10 9 17 2 29 -31 9 -24 21 -65 26 -93 12 -63 21 -85 33 -85 6 0 7 -7 4 -16
-3 -8 -2 -12 4 -9 20 12 10 -55 -10 -72 -11 -10 -20 -23 -20 -29 0 -6 -7 -34
-16 -62 -12 -35 -13 -55 -6 -68 8 -14 5 -22 -12 -35 -21 -18 -21 -18 -1 -33
19 -14 19 -15 -8 -21 -18 -5 -26 -12 -23 -21 6 -17 -13 -64 -26 -64 -5 0 -6
-5 -2 -11 3 -6 0 -15 -7 -20 -12 -8 -12 -11 1 -19 11 -7 12 -12 4 -17 -7 -5
-14 -17 -16 -28 -2 -11 -10 -19 -16 -18 -7 2 -12 -1 -12 -6 0 -5 -12 -12 -26
-15 -26 -7 -29 -31 -4 -31 17 0 25 -21 11 -29 -6 -4 -8 -20 -4 -38 4 -19 2
-29 -4 -25 -5 3 -9 -4 -9 -16 1 -17 -5 -22 -24 -22 -33 0 -37 40 -6 74 14 16
17 25 9 28 -7 2 -9 11 -6 20 5 13 3 13 -16 1 -18 -11 -23 -11 -30 1 -11 17
-23 -1 -15 -23 4 -11 1 -16 -10 -16 -12 0 -16 -10 -17 -37 -1 -21 -3 -30 -6
-20 -8 30 -23 8 -17 -26 14 -84 40 -157 57 -163 13 -4 16 -11 11 -27 -4 -12
-11 -25 -16 -28 -5 -3 -7 -24 -3 -47 5 -34 1 -49 -23 -87 -15 -25 -31 -42 -35
-39 -4 4 -7 -2 -7 -14 0 -12 -4 -22 -10 -22 -5 0 -10 5 -10 10 0 6 -4 10 -10
10 -5 0 -10 -14 -10 -31 0 -17 4 -28 10 -24 5 3 10 1 10 -6 0 -6 -8 -9 -20 -6
-11 3 -20 1 -20 -4 0 -5 5 -9 10 -9 19 0 9 -20 -31 -62 -31 -34 -39 -49 -35
-69 4 -21 1 -26 -12 -25 -11 1 -17 -7 -17 -22 0 -13 -8 -30 -18 -37 -9 -7 -17
-22 -17 -34 0 -25 -47 -81 -68 -81 -13 0 -13 -3 1 -18 15 -16 15 -20 -3 -50
-14 -23 -26 -31 -42 -29 -17 1 -24 -4 -26 -21 -2 -13 1 -29 7 -36 8 -9 -3 -40
-43 -117 -29 -57 -67 -126 -84 -154 -17 -27 -45 -79 -63 -115 -38 -74 -137
-250 -149 -265 -4 -5 -46 -82 -92 -170 -130 -246 -169 -318 -188 -345 -9 -14
-36 -61 -60 -105 -24 -44 -62 -111 -85 -150 -23 -38 -61 -109 -86 -158 -70
-138 -72 -142 -78 -147 -4 -3 -12 -16 -19 -30 -7 -14 -23 -43 -35 -65 -13 -22
-34 -58 -46 -80 -44 -76 -114 -170 -155 -209 -39 -37 -40 -38 -13 -32 15 4
157 7 315 6 l286 0 23 -24 c13 -14 23 -30 23 -36 0 -5 5 -10 10 -10 6 0 9 -3
8 -7 0 -5 2 -15 5 -23 10 -25 38 -103 48 -138 6 -18 16 -32 22 -30 7 2 41 47
77 100 36 52 76 111 89 129 14 19 25 35 26 37 1 1 258 5 572 8 l569 6 70 -66
c79 -77 147 -131 255 -204 42 -28 83 -58 92 -66 47 -47 217 -154 355 -223 374
-188 697 -286 1122 -339 174 -22 530 -29 734 -15 138 9 427 41 511 56 116 20
412 102 505 140 19 8 96 37 170 66 74 29 137 55 140 59 3 3 48 30 100 60 52
29 110 61 127 71 73 41 173 107 258 169 50 36 95 69 102 73 8 5 26 -8 49 -32
49 -54 99 -85 127 -77 12 4 42 9 65 12 40 6 47 3 78 -27 29 -29 37 -31 45 -19
9 13 10 13 6 -2 -3 -9 -3 -19 0 -22 7 -6 43 38 43 53 0 13 33 31 59 31 22 0
47 -35 32 -44 -5 -3 -7 -16 -4 -27 4 -16 2 -20 -8 -17 -8 3 -14 14 -14 26 0
11 -4 24 -8 28 -4 4 -7 1 -7 -6 0 -7 -8 -19 -17 -27 -17 -14 -17 -14 -1 -9 10
3 17 2 16 -2 -3 -14 14 -42 26 -42 7 0 19 -11 26 -25 7 -14 17 -25 22 -25 4 0
8 -7 8 -15 0 -8 7 -15 15 -15 9 0 15 -6 13 -13 -2 -7 2 -13 7 -14 6 0 9 3 7 8
-4 15 25 10 38 -6 9 -10 9 -15 1 -15 -18 0 -12 -17 8 -23 15 -3 17 0 13 17 -5
18 -4 19 11 7 12 -10 14 -18 7 -31 -14 -27 -14 -27 39 -51 33 -16 47 -27 43
-37 -4 -11 1 -11 26 2 38 20 43 20 36 1 -12 -31 36 -14 75 26 l40 42 33 -20
c18 -10 34 -26 34 -34 1 -8 2 -23 3 -33 1 -18 3 -18 26 4 14 13 25 29 25 37 0
7 4 13 9 13 12 0 -3 66 -19 86 -7 8 -10 17 -7 20 6 7 57 -25 57 -36 0 -4 7
-10 14 -13 11 -5 14 1 11 23 -4 37 9 47 28 20 8 -12 18 -20 23 -19 19 3 34 -1
34 -11 0 -5 -8 -10 -17 -11 -10 -1 -1 -5 19 -11 43 -11 55 -33 31 -56 -16 -16
-16 -16 -11 0 4 9 1 19 -7 22 -19 7 -29 -26 -12 -39 8 -6 17 -20 19 -32 3 -20
5 -20 23 -7 17 13 18 16 5 24 -12 8 -11 10 6 10 16 0 23 -8 28 -30 3 -16 10
-30 15 -30 12 0 18 107 7 128 -14 26 -16 27 -26 12 -13 -21 -35 3 -25 27 5 10
7 22 6 27 -4 16 21 56 31 50 4 -3 6 -10 3 -15 -4 -5 1 -9 9 -9 21 0 21 39 1
46 -8 4 -15 19 -15 35 0 31 22 49 62 49 13 1 39 9 58 20 l35 19 -41 1 c-25 0
-46 -6 -54 -15 -6 -8 -22 -17 -33 -21 -48 -14 -78 -74 -44 -87 7 -3 5 -6 -5
-6 -11 -1 -15 -6 -12 -16 4 -10 0 -15 -14 -15 -24 0 -32 10 -38 48 -3 15 -7
34 -10 43 -2 10 13 31 41 57 25 22 45 46 45 52 0 17 88 150 99 150 5 0 11 10
14 22 6 20 8 19 37 -18 18 -21 33 -40 35 -42 1 -1 37 7 80 18 85 23 161 58
215 100 19 15 43 30 52 33 10 3 129 9 265 13 137 4 249 8 251 9 1 1 -15 29
-37 62 -22 33 -52 83 -68 110 -15 28 -53 95 -85 149 -31 55 -73 131 -93 169
-61 114 -106 196 -145 265 -21 36 -59 106 -86 155 -26 50 -53 99 -61 110 -7
11 -13 28 -13 39 0 11 -18 46 -40 77 -22 32 -40 60 -40 62 0 3 -35 70 -79 149
-43 79 -106 199 -141 268 -35 69 -89 170 -120 225 -72 126 -99 175 -195 355
-42 80 -86 160 -97 177 -11 18 -17 37 -14 42 4 5 -2 16 -12 23 -20 14 -181
334 -233 463 -17 44 -36 84 -40 89 -5 6 -32 -12 -65 -45 -81 -79 -81 -79 -89
-71 -5 4 -5 2 -1 -5 4 -7 -6 -21 -24 -34 -16 -12 -41 -39 -54 -60 -16 -24 -32
-36 -43 -35 -10 2 -12 1 -5 -1 13 -5 17 -33 5 -33 -5 0 -16 -14 -25 -31 -14
-23 -23 -29 -37 -24 -15 5 -24 -1 -36 -25 -18 -35 -15 -49 5 -25 22 26 33 16
14 -12 -26 -39 -70 -127 -77 -152 -8 -30 -30 -27 -25 3 3 15 0 27 -8 30 -8 3
-14 12 -14 20 0 19 -34 38 -53 30 -8 -3 -18 -1 -22 5 -7 13 -45 15 -45 3 0
-15 25 -62 33 -62 4 0 7 -14 7 -30 0 -17 18 -68 39 -114 22 -45 38 -91 36
-102 -2 -10 -4 -23 -4 -29 -2 -19 -18 11 -31 58 -7 26 -17 47 -21 47 -5 0 -9
5 -9 11 0 5 -9 31 -21 56 -11 25 -18 51 -15 58 2 7 -2 16 -10 19 -8 3 -14 17
-14 30 0 30 -27 49 -89 66 -67 18 -174 132 -343 365 -4 5 -19 24 -33 40 l-26
30 27 -45 c15 -25 31 -46 35 -48 5 -2 9 -8 9 -14 0 -12 74 -118 153 -217 32
-40 79 -106 104 -145 53 -82 177 -247 216 -290 15 -16 27 -36 27 -45 0 -10 4
-21 9 -26 4 -6 11 -23 15 -38 10 -44 -11 -24 -35 34 -12 27 -25 49 -30 49 -4
0 -10 8 -13 18 -4 10 -15 28 -25 39 -11 11 -37 43 -58 70 -127 167 -160 203
-191 214 -18 6 -30 15 -27 19 3 5 13 6 23 3 10 -4 6 4 -11 20 -15 15 -35 27
-43 27 -7 0 -14 6 -14 13 0 21 -47 60 -61 52 -8 -5 -10 -4 -5 4 5 7 -1 20 -13
30 -26 22 -27 38 -3 44 14 4 13 5 -4 6 -13 1 -32 20 -55 56 -18 30 -38 55 -43
55 -4 0 -5 11 -2 25 5 19 3 23 -9 19 -11 -5 -13 -2 -8 12 4 12 3 15 -5 10 -8
-4 -12 0 -12 11 0 10 -11 38 -24 63 -13 25 -29 62 -35 83 -7 21 -17 34 -23 31
-6 -4 -8 1 -3 15 4 14 2 21 -7 21 -8 0 -20 17 -27 38 -8 20 -17 39 -20 42 -3
3 -14 22 -24 44 -10 21 -37 68 -61 105 -23 36 -55 89 -70 117 -15 27 -45 70
-67 94 -22 24 -43 49 -47 55 -8 13 -62 80 -105 128 -15 18 -48 64 -74 104 -46
71 -69 91 -41 36 65 -127 141 -242 213 -322 127 -142 207 -272 334 -543 73
-155 119 -302 64 -203 -16 28 -37 70 -47 95 -76 180 -128 289 -179 375 -65
109 -68 112 -208 295 -53 69 -117 163 -143 210 -76 138 -188 369 -184 381 2 6
30 -36 62 -93 33 -57 75 -125 95 -153 59 -83 229 -282 346 -405 167 -175 270
-319 365 -510 56 -113 149 -247 201 -290 49 -41 128 -92 185 -120 41 -19 42
-19 95 -1 95 33 152 69 180 115 l18 30 18 -32 c17 -29 45 -46 57 -35 3 3 -2
12 -10 21 -11 10 -12 17 -4 22 6 4 8 14 5 22 -4 9 0 18 9 21 9 4 16 13 16 21
0 17 29 75 31 61 1 -5 1 -13 0 -17 0 -4 6 -5 14 -2 17 7 19 20 5 29 -5 3 -10
13 -10 21 0 20 20 17 20 -3 1 -14 4 -12 14 7 15 25 12 45 -5 35 -5 -4 -9 5 -9
19 0 26 1 26 55 20 44 -5 55 -4 53 6 -2 9 13 17 40 23 43 8 43 9 26 28 -12 13
-21 16 -28 9 -14 -14 -27 -13 -25 3 3 28 -2 37 -24 37 -13 0 -27 -3 -31 -7
-12 -12 -56 -14 -56 -3 0 6 -4 9 -9 6 -4 -3 -13 6 -20 21 -9 19 -9 28 -1 33
14 9 -11 20 -46 20 -13 0 -24 5 -24 10 0 6 -11 8 -25 4 -15 -4 -25 -2 -25 5 0
6 4 11 10 11 6 0 6 9 0 26 -7 19 -7 31 1 40 9 11 8 14 -2 14 -17 1 -50 65 -43
84 3 8 0 17 -6 21 -7 5 -8 11 -1 19 6 7 7 26 1 49 -4 20 -5 37 -2 37 3 0 -3 7
-14 15 -15 11 -16 17 -6 23 10 7 10 11 -3 22 -8 7 -15 19 -15 26 0 8 -5 14
-11 14 -7 0 -9 10 -5 26 6 22 4 26 -11 22 -15 -4 -19 0 -18 21 1 14 5 34 9 43
5 10 1 26 -10 42 -14 22 -19 24 -32 14 -13 -11 -15 -9 -10 15 3 15 1 30 -3 33
-5 3 -9 13 -9 23 0 10 -10 26 -22 34 -20 14 -21 18 -8 26 13 9 11 13 -8 31
-27 25 -24 46 5 42 17 -2 20 2 19 27 -2 35 -8 43 -38 46 -13 1 -26 3 -30 4
-10 2 3 41 14 41 5 0 6 -9 3 -20 -7 -23 7 -27 24 -7 8 10 7 17 -1 25 -8 8 -6
9 9 6 18 -5 21 -1 19 24 -1 17 -5 34 -8 38 -4 4 0 13 10 20 15 12 12 13 -24
14 -22 0 -47 6 -56 13 -19 15 -31 47 -17 47 5 0 14 10 19 23 6 15 9 17 9 5 1
-14 6 -15 36 -5 19 6 35 16 35 24 0 8 12 13 30 13 32 0 96 53 85 70 -3 5 7 8
22 7 21 -2 28 2 27 16 -1 9 4 17 11 17 6 0 17 18 23 39 9 28 19 41 37 45 14 4
25 13 25 20 0 8 6 16 14 19 7 3 16 24 19 47 7 52 10 55 37 38 19 -11 23 -11
28 2 3 8 18 27 34 42 15 14 28 33 28 42 0 9 6 16 14 16 8 0 17 9 21 19 3 11
19 24 36 30 27 9 52 46 43 62 -2 4 3 9 11 13 8 3 15 12 15 20 0 8 8 21 18 28
10 7 21 21 25 30 12 33 69 48 143 37 36 -5 70 -12 75 -15 5 -3 9 -1 9 4 0 24
-128 110 -203 135 -56 19 -135 16 -191 -8 -22 -9 -70 -46 -107 -82 -37 -35
-69 -61 -72 -56 -3 4 -8 26 -13 48 -10 55 -46 134 -79 173 -49 58 -146 93
-295 107 -130 11 -222 25 -280 41 l-24 7 21 -27 c12 -15 19 -34 16 -42 -3 -8
0 -14 6 -14 6 0 11 -7 11 -15 0 -19 19 -20 26 -2 3 10 26 13 79 13 l73 -1 -32
-30 c-37 -34 -108 -140 -168 -253 -86 -164 -220 -345 -317 -429 l-36 -32 46
-48 c76 -79 99 -105 99 -116 0 -5 -32 21 -71 57 -80 76 -132 107 -151 88 -18
-18 5 -56 54 -87 216 -136 268 -175 332 -246 27 -30 62 -73 79 -98 43 -63 318
-546 347 -611 14 -30 40 -84 59 -120 103 -195 112 -222 90 -262 -8 -16 -8 -22
2 -28 9 -6 9 -12 -4 -24 -9 -9 -19 -25 -22 -36 -3 -11 -10 -20 -15 -20 -4 0
-10 -9 -13 -20 -3 -11 -10 -20 -15 -20 -10 0 -9 32 3 120 6 46 -5 111 -17 104
-6 -4 -8 2 -6 12 3 11 -2 32 -10 49 -14 27 -16 28 -22 10 -4 -11 -4 -21 0 -23
5 -2 4 -19 -2 -38 -6 -24 -6 -46 3 -72 6 -20 8 -37 3 -39 -10 -3 -10 -90 1
-115 8 -19 -9 -25 -20 -8 -10 17 -23 11 -18 -8 4 -17 43 -26 43 -10 0 4 5 8
11 8 6 0 9 -9 6 -19 -3 -14 -1 -18 9 -14 10 4 12 0 8 -11 -3 -9 -1 -16 5 -16
6 0 11 -4 11 -10 0 -13 -30 0 -55 23 -11 10 -28 16 -37 14 -14 -4 -18 5 -24
52 -3 31 -11 62 -16 68 -6 7 -7 20 -4 29 4 9 1 23 -5 30 -6 8 -9 27 -7 43 2
17 1 28 -3 26 -6 -4 -22 25 -19 34 1 2 -2 7 -7 10 -4 3 -25 42 -46 85 -45 92
-255 378 -383 520 -158 177 -189 213 -214 257 -19 35 5 15 113 -96 96 -98 133
-129 120 -105 -9 19 -16 41 -15 48 2 7 -4 15 -12 18 -9 3 -14 10 -11 14 9 15
-17 23 -27 9 -6 -10 -7 -7 -3 10 5 16 4 21 -4 17 -6 -4 -11 -2 -11 4 0 18 40
1 71 -31 16 -16 33 -29 39 -29 9 0 15 33 12 73 -1 9 2 17 7 17 4 0 7 12 5 28
-2 15 -1 19 2 10 3 -10 11 -18 17 -18 7 0 18 -9 25 -20 6 -11 18 -17 26 -14
21 8 8 33 -20 40 -25 6 -31 19 -14 29 17 11 11 47 -14 80 -53 70 -239 137
-336 121 -28 -4 -43 -2 -55 10 -17 18 -75 26 -75 10 0 -12 -13 1 -16 17 -2 7
-6 23 -10 36 -7 22 -5 23 22 16 48 -12 59 -13 65 -3 9 14 35 -1 49 -28 9 -17
22 -24 42 -24 15 0 28 4 28 9 0 5 -28 33 -62 62 -35 29 -70 60 -78 70 -27 29
-200 148 -235 160 -19 7 -35 17 -35 21 0 4 -3 8 -7 8 -5 0 -8 -15 -9 -33 -1
-17 1 -26 3 -19 8 21 43 14 43 -9 0 -14 5 -19 14 -16 10 4 12 0 9 -14 -4 -15
-2 -18 11 -13 9 3 16 1 16 -5 0 -6 -9 -11 -20 -11 -11 0 -20 -4 -20 -10 0 -5
-4 -10 -10 -10 -5 0 -7 7 -4 15 7 17 -32 36 -56 27 -8 -3 -12 -2 -8 3 11 12
-18 35 -52 42 -21 4 -35 14 -41 29 -5 14 -17 24 -29 24 -12 0 -22 9 -25 23 -3
12 -19 31 -35 42 -17 11 -30 23 -30 28 0 4 -7 7 -15 7 -9 0 -12 6 -9 15 4 8 1
15 -5 15 -6 0 -11 -6 -12 -12 0 -7 -5 2 -10 20 -5 17 -16 32 -24 32 -8 0 -15
5 -15 10 0 6 -4 10 -9 10 -14 0 -61 45 -61 58 0 6 -9 14 -20 17 -11 3 -20 10
-20 14 0 5 -20 29 -45 54 -25 26 -45 49 -45 51 0 3 -12 22 -26 43 -29 43 -84
156 -84 173 0 17 -89 299 -100 319 -15 25 -13 -6 4 -60 8 -24 33 -109 56 -188
50 -170 67 -212 114 -283 20 -29 36 -56 36 -61 0 -5 6 -14 13 -21 6 -7 41 -45
76 -84 52 -57 69 -70 87 -66 12 3 25 0 29 -6 11 -17 -3 -24 -20 -10 -8 7 -15
9 -14 4 2 -19 198 -188 284 -245 50 -33 95 -65 100 -72 6 -7 15 -12 20 -12 19
-1 95 -40 99 -51 5 -14 -54 5 -65 20 -4 5 -14 6 -23 3 -8 -3 -18 -2 -21 3 -3
5 -30 23 -60 40 -30 17 -61 37 -68 43 -6 7 -39 32 -72 56 -33 25 -87 67 -120
95 -33 28 -70 60 -83 71 -32 26 -160 177 -204 240 -56 80 -89 152 -124 268 -9
31 -20 57 -25 57 -5 0 -6 6 -3 14 7 18 -14 58 -27 51 -5 -4 -9 -1 -9 4 0 6 5
11 11 11 33 0 -75 285 -128 338 -14 15 -15 14 -8 -8 4 -14 13 -36 20 -50 7
-14 16 -42 20 -63 4 -20 11 -40 16 -43 5 -3 9 -14 9 -25 0 -10 5 -19 10 -19 6
0 10 -8 10 -17 -1 -27 -35 22 -49 68 -6 20 -43 99 -82 174 -38 75 -69 143 -67
151 2 9 21 -8 48 -42 24 -31 67 -75 94 -97 71 -59 96 -85 148 -147 45 -55 188
-257 188 -266 0 -2 11 -21 23 -42 13 -20 50 -84 82 -142 57 -104 181 -267 263
-346 39 -38 208 -157 260 -183 29 -15 28 0 -1 30 -13 13 -34 41 -46 62 -13 21
-29 43 -36 50 -39 40 -243 372 -371 605 -107 195 -126 229 -162 287 -154 251
-634 1165 -662 1260 -10 35 -8 55 15 150 29 119 35 262 15 366 -6 29 -8 54 -6
56 2 2 18 -33 36 -78 33 -84 83 -183 150 -299 21 -36 84 -155 140 -265 57
-110 121 -231 142 -268 21 -38 38 -72 38 -76 0 -4 12 -23 26 -42 14 -19 46
-76 70 -128 l45 -94 -27 -28 c-23 -24 -25 -29 -11 -35 24 -9 50 -1 52 17 3 20
85 98 103 99 15 0 15 -2 -3 -36 -8 -16 -15 -37 -15 -46 0 -10 -4 -18 -10 -18
-5 0 -10 -5 -10 -10 0 -6 11 -3 24 6 31 19 50 74 41 117 -3 18 -3 27 2 20 5
-7 9 15 10 53 0 36 6 71 12 77 8 8 11 -18 11 -99 0 -102 -2 -113 -26 -150 -29
-46 -80 -79 -171 -115 -35 -13 -63 -27 -63 -32 0 -20 30 -77 41 -77 8 0 8 4
-1 15 -7 9 -8 15 -2 15 18 0 23 -33 7 -50 -11 -12 -13 -20 -6 -25 6 -3 11 -17
11 -31 0 -13 4 -24 10 -24 5 0 8 16 6 35 -2 29 1 35 17 35 19 0 20 1 2 20 -17
19 -17 20 1 20 11 0 30 -16 43 -36 13 -19 29 -33 36 -30 6 2 24 -14 38 -37 31
-48 35 -39 7 18 -20 42 -25 65 -12 65 13 0 264 -420 308 -515 7 -16 24 -48 38
-70 26 -43 61 -107 136 -250 87 -168 193 -360 205 -375 13 -16 49 -91 60 -124
5 -18 9 -16 41 15 64 62 132 177 169 287 40 118 35 354 -11 497 -82 257 -229
428 -519 602 -11 7 -79 42 -152 78 l-131 66 9 32 c5 18 9 34 9 37 0 3 7 -3 14
-13 12 -16 17 -16 35 -5 12 7 21 18 21 25 0 7 5 13 10 13 6 0 10 -6 10 -12 0
-9 4 -8 10 2 8 13 10 12 10 -3 0 -26 24 -47 53 -47 34 0 58 10 51 21 -3 5 0 9
5 9 6 0 11 -5 11 -10 0 -7 13 -8 35 -4 37 7 65 -6 115 -51 14 -13 39 -25 55
-27 45 -5 181 -92 253 -162 34 -34 73 -63 85 -66 13 -4 22 -14 22 -25 0 -12 6
-19 14 -17 25 5 52 -10 69 -37 9 -16 20 -29 25 -29 24 -4 39 -23 44 -58 5 -43
-4 -54 -99 -115 -27 -17 -48 -35 -48 -40 0 -18 28 -8 66 25 34 30 42 32 69 23
16 -5 35 -15 40 -21 6 -7 19 -16 30 -20 20 -8 20 -8 0 -16 -21 -8 -53 -40 -41
-40 4 0 17 5 29 12 34 18 57 20 57 3 0 -8 -7 -15 -15 -15 -8 0 -15 -7 -15 -15
0 -8 4 -15 8 -15 13 0 7 -43 -6 -48 -7 -2 -12 -10 -12 -17 0 -7 -4 -15 -10
-17 -5 -2 -6 -9 -1 -17 8 -12 21 -12 92 0 51 8 153 14 259 13 152 0 184 -3
240 -22 116 -39 152 -26 103 36 -15 20 -41 56 -57 80 -16 23 -33 42 -37 42 -5
0 -9 6 -9 13 0 8 -9 22 -20 32 -11 10 -22 26 -26 37 -3 11 -15 29 -25 39 -16
16 -17 22 -7 39 8 13 20 19 31 16 17 -4 17 -3 4 12 -7 9 -17 25 -20 35 -7 20
-28 22 -45 5 -9 -9 -12 -9 -12 1 0 7 -4 10 -9 6 -5 -3 -12 -1 -16 5 -3 5 0 10
7 10 8 0 6 5 -4 11 -10 5 -18 18 -18 28 0 11 -7 21 -15 25 -8 3 -20 17 -25 31
-12 32 -30 33 -30 2 0 -29 -29 -57 -58 -57 -13 0 -22 -6 -22 -15 0 -15 11 -19
39 -15 11 1 12 -7 8 -34 -3 -20 -2 -36 4 -36 5 0 9 -4 9 -10 0 -5 -7 -7 -15
-4 -14 6 -19 -7 -17 -45 0 -8 -6 -24 -13 -34 -13 -18 -14 -15 -14 29 1 27 -9
95 -20 151 -25 121 -25 113 -6 113 8 0 15 4 15 9 0 4 -10 8 -22 7 -18 -1 -23
4 -22 24 1 14 -3 28 -8 31 -6 4 -7 17 -3 30 l8 23 14 -27 c7 -15 20 -27 28
-27 8 0 15 -7 15 -15 0 -8 7 -15 15 -15 8 0 15 -4 15 -10 0 -16 17 -11 25 7 3
10 2 19 -4 21 -6 2 -8 16 -4 33 3 18 1 29 -6 29 -6 0 -11 10 -11 23 0 12 -7
32 -15 45 -13 17 -14 26 -4 43 8 16 8 36 0 78 -11 57 -11 77 2 97 3 6 3 14 -1
18 -4 4 -8 12 -8 17 -1 5 -2 10 -3 12 -1 1 -4 20 -5 42 -1 22 -6 73 -11 112
l-8 73 -24 -33 c-32 -41 -163 -262 -163 -273 0 -5 -9 -20 -20 -34 -16 -20 -20
-22 -20 -8 0 25 51 128 78 158 12 14 22 30 22 37 0 6 6 18 13 25 18 19 47 61
47 70 0 12 -51 2 -60 -12 -4 -7 -14 -11 -22 -8 -16 7 -42 -10 -51 -32 -4 -10
-6 -8 -6 7 -1 12 5 24 12 26 6 3 1 6 -13 6 -15 1 -33 -9 -47 -26 -17 -22 -22
-24 -23 -11 0 25 -28 11 -32 -15 -2 -15 -9 -21 -22 -20 -11 1 -26 -6 -33 -15
-11 -15 -14 -15 -22 -2 -9 12 -11 12 -17 -3 -3 -9 -12 -17 -20 -17 -8 0 -14
-5 -14 -12 0 -6 -3 -8 -7 -5 -3 4 -12 2 -20 -4 -10 -9 -13 -8 -13 6 0 14 -6
15 -32 10 -18 -4 -36 -13 -40 -19 -6 -8 -8 -7 -8 2 0 6 -9 12 -20 12 -11 0
-20 5 -20 11 0 5 -4 8 -9 4 -5 -3 -25 4 -44 15 -19 12 -61 30 -93 41 -32 11
-90 36 -130 55 -40 19 -77 34 -83 34 -6 0 -11 4 -11 9 0 5 -7 12 -16 15 -9 4
-13 2 -8 -5 5 -8 1 -8 -13 0 -11 6 -23 7 -27 4 -3 -3 -6 2 -7 13 0 10 -3 14
-5 7 -4 -8 -17 -10 -37 -6 -32 6 -74 29 -69 38 7 14 0 16 -13 5 -13 -10 -18
-11 -28 -1 -9 10 -8 11 7 5 13 -5 17 -4 12 4 -4 7 -19 12 -34 12 -21 0 -24 -2
-12 -10 11 -7 7 -10 -17 -10 -17 0 -35 5 -38 10 -4 6 -15 8 -25 5 -10 -3 -46
3 -80 14 -34 11 -66 19 -72 18 -6 -1 -13 4 -15 11 -3 6 2 12 11 12 9 0 16 5
16 10 0 6 -4 10 -10 10 -5 0 -7 7 -3 16 6 15 -6 15 -71 -3 -15 -4 -18 -1 -14
15 5 17 0 22 -24 27 -23 5 -29 11 -25 26 5 18 -7 24 -40 20 -13 -2 -17 10 -14
40 1 9 -5 19 -14 22 -8 4 -15 13 -15 21 0 8 -3 16 -7 18 -12 5 -55 88 -46 88
4 0 0 5 -9 11 -10 5 -18 15 -18 22 0 7 -9 18 -20 25 -11 7 -20 18 -20 26 0 18
-30 43 -62 51 -17 4 -28 14 -28 24 0 9 -11 29 -25 44 -14 15 -23 27 -20 27 3
0 -1 13 -10 30 -8 16 -15 42 -15 58 0 15 -7 37 -15 48 -8 10 -15 24 -15 31 0
6 -22 47 -49 90 -26 43 -60 101 -75 128 -14 28 -36 66 -48 86 -13 20 -36 57
-51 83 -16 25 -30 46 -30 46 -1 0 -41 -78 -88 -173z m131 -210 c0 -4 -6 -2
-14 5 -8 7 -12 17 -9 22 5 8 23 -12 23 -27z m-280 -146 c0 -5 -7 -14 -15 -21
-8 -7 -14 -18 -14 -24 4 -21 -20 -66 -35 -66 -22 0 -24 22 -4 44 42 48 48 56
48 66 0 6 5 10 10 10 6 0 10 -4 10 -9z m645 -190 c3 -5 1 -12 -5 -16 -5 -3
-10 1 -10 9 0 18 6 21 15 7z m18 -53 c7 -25 3 -33 -12 -23 -13 8 -15 45 -2 45
5 0 11 -10 14 -22z m-618 -18 c-12 -13 -15 -27 -11 -45 4 -17 3 -24 -4 -20 -9
5 -12 -1 -9 -22 0 -3 -6 -10 -15 -15 -9 -5 -13 -15 -9 -25 5 -12 3 -14 -7 -8
-10 6 -12 1 -7 -23 5 -24 3 -32 -7 -32 -17 0 -27 -25 -20 -45 4 -9 0 -15 -8
-15 -9 0 -27 -25 -41 -57 -24 -53 -24 -58 -9 -70 16 -12 15 -13 -5 -19 -12 -3
-26 -20 -33 -37 -6 -18 -16 -40 -21 -49 -5 -10 -9 -26 -9 -37 0 -10 -8 -22
-17 -25 -12 -5 -14 -9 -5 -18 17 -17 15 -25 -7 -31 -10 -2 -27 -22 -36 -43 -9
-22 -26 -56 -37 -76 -18 -36 -18 -38 -1 -32 10 3 6 -2 -9 -11 -18 -10 -41 -44
-68 -100 -22 -46 -40 -89 -40 -94 0 -6 -4 -11 -9 -11 -5 0 -11 -8 -15 -17 -3
-10 -19 -40 -34 -68 -16 -27 -42 -76 -59 -108 -17 -31 -36 -64 -43 -72 -7 -8
-9 -15 -4 -15 4 0 -2 -10 -14 -22 -11 -13 -24 -36 -28 -53 -4 -16 -15 -41 -25
-55 -9 -14 -32 -53 -50 -85 -18 -33 -43 -78 -56 -100 -13 -22 -35 -64 -48 -92
-14 -29 -29 -53 -35 -53 -5 0 -10 -6 -10 -14 0 -7 -7 -19 -15 -26 -8 -7 -15
-11 -15 -9 0 7 97 193 166 320 38 69 134 256 214 415 80 159 148 291 153 292
4 2 7 8 7 12 0 5 28 63 63 128 35 65 69 134 77 153 7 19 38 86 68 149 142 301
149 316 160 305 3 -3 -3 -14 -13 -25z m825 -277 c0 -15 -2 -15 -24 -7 -23 9
-20 23 4 21 11 -1 20 -7 20 -14z m-911 -53 c1 -13 0 -13 -9 0 -5 8 -9 24 -9
35 l0 20 9 -20 c5 -11 9 -27 9 -35z m-249 0 c0 -5 -3 -15 -6 -24 -7 -18 -44
-22 -44 -5 0 5 5 7 10 4 6 -3 10 5 10 19 0 18 4 24 15 20 8 -4 15 -10 15 -14z
m1170 10 c0 -5 -6 -10 -14 -10 -8 0 -18 5 -21 10 -3 6 3 10 14 10 12 0 21 -4
21 -10z m-1210 -10 c0 -5 -7 -7 -15 -4 -8 4 -15 8 -15 10 0 2 7 4 15 4 8 0 15
-4 15 -10z m1320 -30 c0 -5 -4 -10 -10 -10 -5 0 -10 5 -10 10 0 6 5 10 10 10
6 0 10 -4 10 -10z m-1053 -6 c-3 -3 -12 -4 -19 -1 -8 3 -5 6 6 6 11 1 17 -2
13 -5z m139 -29 c17 -16 14 -18 -10 -9 -9 3 -16 10 -16 15 0 13 9 11 26 -6z
m-92 -31 c3 -8 2 -12 -4 -9 -6 3 -10 10 -10 16 0 14 7 11 14 -7z m41 -32 c-8
-8 -25 10 -19 20 4 6 9 5 15 -3 4 -7 6 -15 4 -17z m-81 2 c3 -9 2 -23 -4 -32
-10 -19 -11 -18 -14 21 -2 30 8 36 18 11z m-26 -91 c-6 -7 -18 -12 -27 -12
-13 1 -13 2 2 6 21 5 23 23 2 23 -18 0 -20 17 -2 23 18 6 38 -25 25 -40z m-28
-35 c0 -13 -23 -5 -28 10 -2 7 2 10 12 6 9 -3 16 -11 16 -16z m110 12 c0 -5
-5 -10 -11 -10 -5 0 -7 5 -4 10 3 6 8 10 11 10 2 0 4 -4 4 -10z m20 -40 c8 -5
11 -12 8 -16 -4 -3 -14 1 -23 10 -18 17 -9 21 15 6z m2166 -38 c-4 -3 -11 -1
-18 6 -8 8 -8 15 3 28 13 16 14 16 17 -5 2 -13 1 -25 -2 -29z m-2313 5 c4 3 7
-1 7 -10 0 -8 2 -22 5 -29 4 -9 -4 -19 -19 -26 -13 -6 -27 -21 -31 -33 -5 -16
-9 -18 -15 -8 -7 10 -11 10 -24 0 -13 -11 -16 -11 -16 3 0 9 5 16 11 16 5 0 7
5 3 11 -4 7 1 10 12 7 10 -2 29 8 42 21 21 21 22 25 8 40 -9 10 -16 22 -16 27
0 5 7 1 14 -8 7 -10 16 -15 19 -11z m55 16 c0 -5 3 -19 9 -32 7 -18 12 -21 18
-12 11 18 24 -5 18 -30 -7 -27 -20 -24 -36 9 -23 43 -30 72 -18 72 6 0 10 -3
9 -7z m2172 -29 c0 -3 -7 -12 -15 -20 -16 -17 -18 -14 -9 10 6 15 24 23 24 10z
m-2310 -18 c0 -16 -28 -42 -36 -33 -8 7 14 47 26 47 6 0 10 -6 10 -14z m145
-76 c3 -5 1 -10 -4 -10 -6 0 -11 5 -11 10 0 6 2 10 4 10 3 0 8 -4 11 -10z
m-13 -71 c5 -32 -9 -40 -19 -11 -4 9 -15 24 -25 33 -23 21 -13 31 17 17 14 -6
25 -21 27 -39z m-213 -2 c-12 -41 -12 -42 6 -27 8 6 19 9 25 5 19 -12 10 -22
-20 -22 -17 0 -30 6 -30 12 0 30 13 74 20 70 5 -3 4 -20 -1 -38z m114 23 c17
-21 15 -24 -15 -21 -10 1 -18 -3 -18 -9 0 -6 -10 -3 -23 7 -18 13 -21 20 -13
30 17 19 50 15 69 -7z m1447 -22 c0 -16 -3 -19 -11 -11 -6 6 -8 16 -5 22 11
17 16 13 16 -11z m-1380 -49 c14 -25 -7 -36 -25 -13 -8 11 -15 24 -15 31 0 17
28 5 40 -18z m1360 21 c0 -5 -4 -10 -10 -10 -5 0 -10 5 -10 10 0 6 5 10 10 10
6 0 10 -4 10 -10z m126 -26 c-5 -13 -10 -14 -18 -6 -6 6 -8 18 -4 28 5 13 10
14 18 6 6 -6 8 -18 4 -28z m-1589 1 c-4 -8 -18 -15 -34 -15 l-28 0 30 19 c33
20 40 19 32 -4z m41 -23 c-17 -12 -22 -12 -29 -1 -13 22 9 41 31 27 18 -12 18
-13 -2 -26z m-1248 13 c0 -8 -4 -15 -10 -15 -5 0 -10 7 -10 15 0 8 5 15 10 15
6 0 10 -7 10 -15z m1102 -17 c-5 -19 -2 -21 26 -15 l31 6 -21 -24 c-24 -28
-43 -33 -35 -10 8 20 -11 29 -28 15 -18 -15 -19 -9 -3 25 14 31 39 34 30 3z
m-1132 2 c0 -5 -5 -10 -11 -10 -5 0 -7 5 -4 10 3 6 8 10 11 10 2 0 4 -4 4 -10z
m-40 -41 c0 -5 -4 -9 -10 -9 -5 0 -10 7 -10 16 0 8 5 12 10 9 6 -3 10 -10 10
-16z m1279 7 c8 -9 8 -16 2 -20 -5 -4 -13 -1 -16 5 -4 5 -13 8 -21 5 -8 -3
-14 -1 -14 3 0 9 15 18 31 20 4 1 12 -5 18 -13z m71 4 c0 -5 -4 -10 -9 -10 -6
0 -13 5 -16 10 -3 6 1 10 9 10 9 0 16 -4 16 -10z m-26 -35 c-4 -8 -15 -15 -25
-15 -27 0 -24 18 4 23 12 2 23 5 24 6 1 0 0 -6 -3 -14z m-59 -54 c-8 -48 -25
-55 -25 -11 0 34 -14 38 -43 13 -15 -13 -21 -15 -24 -5 -3 6 -9 10 -14 6 -5
-3 -9 -1 -9 5 0 15 18 23 25 11 3 -5 11 -10 16 -10 6 0 8 4 4 9 -9 16 13 23
35 11 16 -9 22 -8 26 5 11 28 16 8 9 -34z m-670 29 c-3 -5 -10 -10 -16 -10 -5
0 -9 5 -9 10 0 6 7 10 16 10 8 0 12 -4 9 -10z m1087 -230 c67 -102 157 -229
200 -283 78 -98 102 -142 52 -96 -66 60 -203 222 -257 304 -63 95 -157 277
-157 304 0 18 -4 23 162 -229z m-568 215 c-4 -8 -11 -15 -16 -15 -6 0 -5 6 2
15 7 8 14 15 16 15 2 0 1 -7 -2 -15z m716 -15 c6 -11 9 -20 7 -20 -2 0 -12 9
-22 20 -10 11 -13 20 -7 20 6 0 16 -9 22 -20z m-1190 -1 c0 -3 -7 -12 -15 -19
-8 -7 -15 -18 -15 -26 0 -13 -38 -30 -47 -20 -3 3 -12 -2 -19 -12 -11 -14 -15
-15 -26 -3 -11 12 -11 13 1 6 10 -6 12 -2 6 14 -4 15 -2 21 8 21 8 0 17 6 20
14 4 9 14 12 26 9 12 -3 21 -1 21 6 0 5 -7 8 -15 5 -8 -4 -15 -2 -15 4 0 5 16
10 35 9 19 -1 35 -4 35 -8z m490 -21 c0 6 5 12 10 12 6 0 10 -11 10 -25 0 -30
-15 -33 -30 -6 -13 25 -13 41 0 21 6 -10 10 -11 10 -2z m80 -19 c0 -6 -4 -7
-10 -4 -5 3 -10 11 -10 16 0 6 5 7 10 4 6 -3 10 -11 10 -16z m-811 -16 c-11
-29 6 -50 27 -33 6 6 14 7 17 3 4 -3 7 1 7 10 0 9 -4 19 -10 22 -5 3 -10 12
-10 18 0 7 14 -3 30 -22 23 -26 28 -37 19 -47 -6 -8 -16 -14 -21 -14 -5 0 -18
-8 -29 -18 -10 -11 -32 -25 -47 -33 -67 -35 -237 -203 -298 -296 -128 -194
-170 -413 -128 -677 20 -129 61 -228 137 -328 32 -43 57 -81 55 -84 -7 -6 -68
17 -68 26 0 4 -13 16 -29 27 -88 56 -283 244 -357 345 -85 117 -137 214 -104
193 9 -5 11 -4 6 4 -4 6 -11 9 -16 6 -13 -8 -61 91 -54 109 9 24 26 19 19 -5
-5 -14 -3 -19 3 -15 6 3 12 2 14 -4 2 -6 8 -6 18 0 13 8 13 10 -1 10 -26 0
-32 51 -8 68 10 7 19 20 19 28 0 11 7 13 26 8 26 -7 26 -5 22 30 -3 29 0 40
15 47 25 14 47 4 47 -21 0 -11 5 -20 11 -20 13 0 4 51 -18 98 -9 18 -12 36 -8
40 4 4 10 2 12 -4 4 -12 43 -7 43 6 0 4 -9 15 -20 25 -11 10 -20 21 -20 26 0
4 9 5 20 2 13 -4 20 0 20 10 0 8 9 17 20 20 12 3 20 14 20 26 0 12 5 21 10 21
6 0 10 -7 10 -15 0 -18 21 -20 38 -3 20 20 15 41 -8 35 -11 -3 -23 -1 -26 4
-3 5 1 10 8 11 7 0 18 2 23 3 6 2 16 3 24 4 7 0 11 7 8 16 -7 17 9 30 18 16
11 -19 -17 -103 -36 -108 -11 -3 -16 -10 -13 -15 3 -5 -4 -18 -17 -29 l-22
-19 26 0 c29 0 41 -27 21 -50 -8 -10 -10 -21 -4 -29 6 -10 12 -2 21 29 10 34
11 44 1 48 -18 6 -15 52 3 52 8 0 15 8 15 18 1 16 1 16 14 0 7 -10 18 -18 25
-18 6 0 11 -11 11 -24 0 -13 7 -26 15 -30 37 -14 6 71 -37 102 -22 16 -24 36
-2 28 12 -5 15 -2 11 13 -3 14 0 17 13 14 10 -3 21 0 24 6 4 7 -1 11 -14 11
-12 0 -18 4 -15 11 4 6 13 8 21 5 9 -3 14 1 14 11 0 15 2 14 14 -2 10 -14 11
-26 5 -43 -8 -20 -7 -23 6 -18 10 4 15 -1 16 -17 0 -17 3 -14 13 13 11 29 10
41 -5 81 -18 45 -18 47 0 52 13 3 23 -3 32 -19 7 -13 17 -24 22 -24 6 0 5 5
-1 13 -7 8 -7 17 1 27 15 19 49 23 59 7 4 -7 6 7 4 31 -3 33 -1 42 9 38 8 -3
16 0 18 7 2 7 8 9 12 5 4 -4 0 -19 -9 -32 -21 -32 -20 -36 3 -36 11 0 23 -5
27 -11 4 -8 10 -7 18 1 8 8 7 15 -6 24 -10 7 -18 16 -18 18 0 11 59 30 70 23
6 -4 4 10 -5 32 -9 21 -19 44 -22 51 -3 8 5 12 26 12 23 0 31 5 31 18 0 13 2
14 9 3 7 -11 13 -10 32 9 20 19 79 60 86 60 1 0 -2 -12 -8 -27z m1411 -26 c0
-5 -4 -5 -10 -2 -5 3 -10 14 -10 23 0 15 2 15 10 2 5 -8 10 -19 10 -23z m-570
6 c0 -15 -5 -15 -37 -7 -33 9 -28 21 7 20 17 -1 30 -7 30 -13z m-20 -57 c0 -3
-4 -8 -10 -11 -5 -3 -10 -1 -10 4 0 6 5 11 10 11 6 0 10 -2 10 -4z m730 -6 c0
-5 -5 -10 -11 -10 -5 0 -7 5 -4 10 3 6 8 10 11 10 2 0 4 -4 4 -10z m-885 -52
c-7 -31 -8 -32 -16 -10 -6 15 -5 28 4 37 17 18 20 12 12 -27z m-970 -14 c0
-23 -4 -33 -12 -29 -19 7 -43 -5 -43 -21 0 -8 -4 -14 -10 -14 -14 0 -13 13 4
44 16 31 49 66 56 59 3 -3 5 -20 5 -39z m1065 36 c0 -5 -2 -10 -4 -10 -3 0 -8
5 -11 10 -3 6 -1 10 4 10 6 0 11 -4 11 -10z m88 -10 c-7 -11 -17 -20 -22 -20
-5 0 -1 9 9 20 10 11 20 20 22 20 2 0 -2 -9 -9 -20z m625 -86 c10 -14 16 -32
13 -40 -3 -8 -2 -12 4 -9 13 8 31 -30 24 -49 -3 -9 -2 -16 3 -16 8 0 33 -42
33 -55 0 -14 -29 10 -34 28 -3 13 -13 31 -23 42 -10 11 -20 29 -21 40 -2 11
-8 22 -12 25 -12 7 -24 60 -14 60 5 0 17 -12 27 -26z m-775 -13 c6 -16 8 -32
4 -36 -3 -3 4 -8 16 -12 26 -6 28 -16 7 -33 -8 -7 -13 -16 -10 -20 3 -4 -2
-11 -11 -14 -12 -4 -14 -14 -9 -36 8 -37 -10 -40 -20 -3 -5 20 -2 29 11 36 16
9 16 11 -1 23 -18 13 -18 14 3 14 32 0 27 17 -8 25 -30 7 -38 19 -20 30 6 3
10 17 10 31 0 33 16 30 28 -5z m-1562 -23 c-11 -15 -16 -18 -16 -7 0 16 21 42
28 34 2 -2 -3 -14 -12 -27z m1631 10 c-3 -8 -6 -5 -6 6 -1 11 2 17 5 13 3 -3
4 -12 1 -19z m2880 -20 c-3 -8 -6 -5 -6 6 -1 11 2 17 5 13 3 -3 4 -12 1 -19z
m-1957 -8 c0 -5 -2 -10 -4 -10 -3 0 -8 5 -11 10 -3 6 -1 10 4 10 6 0 11 -4 11
-10z m-2414 -47 c-8 -9 -36 17 -36 33 0 10 7 7 21 -7 11 -11 18 -23 15 -26z
m-156 27 c0 -5 -2 -10 -4 -10 -3 0 -8 5 -11 10 -3 6 -1 10 4 10 6 0 11 -4 11
-10z m1980 -11 c0 -11 7 -27 15 -35 8 -8 19 -32 25 -54 9 -32 7 -50 -11 -102
-19 -57 -117 -219 -141 -235 -12 -7 -1 34 16 62 16 26 10 45 -15 45 -11 0 -18
4 -14 9 3 5 -2 16 -10 24 -19 20 -19 36 0 43 8 4 15 13 15 22 0 11 -11 6 -35
-18 -19 -19 -35 -40 -35 -47 0 -7 -4 -13 -9 -13 -10 0 -73 -56 -198 -175 -154
-147 -282 -337 -356 -530 -28 -73 -31 -90 -31 -200 -1 -145 5 -164 90 -290 35
-52 64 -97 64 -100 0 -2 22 -28 50 -56 27 -29 46 -57 43 -62 -3 -6 -12 -2 -19
8 -8 11 -19 15 -30 11 -15 -6 -16 -8 0 -24 9 -10 16 -24 16 -30 0 -7 4 -12 8
-12 11 0 34 -51 27 -58 -3 -4 -25 14 -48 38 -24 25 -73 73 -109 108 -37 34
-81 81 -99 105 -19 23 -39 46 -46 50 -7 4 -13 14 -13 21 0 8 -6 19 -14 25 -8
7 -12 21 -9 31 4 14 0 20 -11 20 -10 0 -14 5 -11 11 4 5 0 18 -9 28 -14 16
-40 87 -52 145 -3 12 -9 41 -15 66 -21 93 -22 97 -4 103 9 4 14 3 10 -3 -3 -6
1 -10 9 -10 9 0 16 -7 16 -15 0 -8 5 -15 10 -15 6 0 10 5 10 11 0 5 5 7 11 3
7 -4 9 -23 5 -50 -4 -30 -2 -44 6 -44 6 0 8 -3 5 -7 -4 -3 -3 -11 2 -17 6 -6
19 -46 30 -89 24 -86 34 -109 105 -216 46 -70 134 -171 149 -171 16 0 4 18
-44 70 -60 64 -105 132 -141 212 -68 149 -70 216 -12 382 16 46 11 61 -8 22
-9 -21 -17 -26 -32 -22 -12 3 -30 6 -41 6 -11 0 -28 7 -37 14 -16 12 -16 15 2
51 11 21 17 42 14 47 -3 4 19 5 50 2 46 -6 57 -4 62 10 3 9 11 16 18 16 13 0
60 69 52 78 -9 9 -46 -29 -46 -48 0 -14 -7 -16 -37 -11 -21 4 -37 10 -35 14 1
4 2 12 2 18 0 6 7 9 15 5 17 -6 21 9 5 19 -5 3 -10 12 -10 19 0 17 42 66 57
66 13 0 27 29 24 52 -1 9 7 22 18 28 12 6 21 17 21 25 0 9 6 12 15 9 9 -4 15
0 15 10 0 10 9 16 25 16 26 0 35 15 13 22 -17 6 0 28 23 28 10 0 19 5 19 10 0
20 19 10 22 -12 2 -12 9 -23 15 -25 10 -4 10 3 2 26 -15 42 12 84 49 74 20 -5
24 -3 19 9 -4 12 0 14 15 10 17 -4 20 -2 15 12 -5 12 1 20 18 28 14 6 25 15
25 20 0 4 8 8 18 8 15 1 15 2 -3 16 -15 11 -17 17 -7 23 7 4 16 21 20 36 11
39 28 42 35 7 3 -17 12 -29 21 -29 12 0 14 7 9 26 -3 14 -10 32 -16 39 -6 7
-6 12 0 12 5 0 16 12 23 26 16 30 288 234 311 234 5 0 9 -9 9 -21z m-2006 2
c3 -5 -1 -14 -8 -20 -12 -10 -13 -8 -9 8 6 23 9 25 17 12z m236 -71 c0 -5 -4
-10 -10 -10 -5 0 -10 5 -10 10 0 6 5 10 10 10 6 0 10 -4 10 -10z m3990 -35 c0
-17 -2 -18 -24 -9 -23 9 -20 24 4 24 11 0 20 -7 20 -15z m30 -25 c0 -11 -4
-20 -10 -20 -5 0 -10 9 -10 20 0 11 5 20 10 20 6 0 10 -9 10 -20z m-4050 -10
c0 -5 -4 -10 -10 -10 -5 0 -10 5 -10 10 0 6 5 10 10 10 6 0 10 -4 10 -10z
m1385 -28 c-3 -3 -11 0 -18 7 -9 10 -8 11 6 5 10 -3 15 -9 12 -12z m-15 -21
c0 -5 -7 -11 -15 -15 -15 -5 -20 5 -8 17 9 10 23 9 23 -2z m-1610 -101 c0 -11
-4 -20 -10 -20 -5 0 -10 9 -10 20 0 11 5 20 10 20 6 0 10 -9 10 -20z m163 -40
c-12 -45 -31 -50 -26 -8 7 51 12 63 24 51 7 -7 7 -22 2 -43z m57 40 c0 -5 -2
-10 -4 -10 -3 0 -8 5 -11 10 -3 6 -1 10 4 10 6 0 11 -4 11 -10z m2460 -10 c0
-5 -2 -10 -4 -10 -3 0 -8 5 -11 10 -3 6 -1 10 4 10 6 0 11 -4 11 -10z m-2660
-48 c0 -10 9 -24 19 -31 11 -8 17 -20 14 -28 -3 -7 0 -13 6 -13 14 0 15 -57 1
-65 -5 -3 -12 7 -16 22 -11 53 -17 68 -25 73 -14 9 -24 74 -11 66 7 -4 12 -15
12 -24z m1576 10 c7 -4 0 -16 -19 -32 -17 -13 -27 -17 -24 -10 4 8 10 23 13
33 7 19 13 21 30 9z m723 -185 c48 -84 107 -188 131 -232 23 -44 76 -141 118
-215 41 -74 96 -173 122 -220 26 -47 74 -139 107 -205 117 -235 186 -352 250
-420 37 -40 83 -103 83 -114 0 -6 -4 -11 -10 -11 -5 0 -10 5 -10 11 0 5 -4 8
-10 4 -5 -3 -7 -12 -3 -20 3 -10 1 -13 -8 -10 -18 7 -51 64 -43 76 3 5 -2 9
-10 9 -8 0 -21 10 -27 23 -7 12 -34 50 -60 83 -39 50 -169 297 -169 322 0 4
-12 25 -25 47 l-26 40 4 -135 c2 -99 8 -146 21 -175 24 -55 125 -222 144 -237
11 -9 10 -1 -6 25 -12 20 -17 37 -12 37 13 0 72 -108 65 -120 -3 -5 1 -10 9
-10 9 0 16 -4 16 -9 0 -4 10 -19 23 -32 153 -167 299 -372 388 -551 33 -67 71
-138 84 -159 22 -35 345 -636 473 -879 30 -58 72 -135 93 -172 22 -36 39 -69
39 -71 0 -11 127 -228 165 -283 24 -33 116 -132 205 -220 147 -145 221 -229
220 -251 -1 -4 -20 13 -43 38 -23 25 -86 83 -139 128 -147 124 -284 310 -439
596 -24 44 -53 98 -66 120 -12 22 -27 49 -32 60 -5 11 -45 87 -90 169 -44 82
-81 151 -81 154 0 2 -17 34 -39 70 -21 37 -56 101 -78 142 -22 41 -56 104 -75
140 -75 138 -123 228 -165 310 -133 257 -299 488 -475 661 -65 64 -118 119
-118 123 0 3 -19 39 -43 79 -60 100 -74 134 -92 218 -16 75 -18 182 -4 209 4
8 10 23 13 33 3 10 10 16 16 12 27 -16 -32 103 -172 348 -43 76 -78 140 -78
142 0 2 -26 50 -58 107 -32 57 -83 150 -113 208 -30 58 -56 107 -59 110 -3 3
-13 25 -23 49 l-17 45 21 -23 c11 -12 60 -90 108 -174z m-429 153 c0 -5 -4
-10 -10 -10 -5 0 -10 5 -10 10 0 6 5 10 10 10 6 0 10 -4 10 -10z m-35 -30 c-3
-5 -11 -10 -16 -10 -6 0 -7 5 -4 10 3 6 11 10 16 10 6 0 7 -4 4 -10z m-320 -9
c3 -5 1 -12 -5 -16 -5 -3 -10 1 -10 9 0 18 6 21 15 7z m367 -63 c-8 -8 -9 -4
-5 13 4 13 8 18 11 10 2 -7 -1 -18 -6 -23z m835 -10 c-3 -8 -6 -5 -6 6 -1 11
2 17 5 13 3 -3 4 -12 1 -19z m-927 -162 c0 -8 -7 -16 -15 -20 -12 -4 -13 -2
-2 14 14 24 17 25 17 6z m2730 -81 c0 -55 -47 -195 -96 -284 -32 -59 -106
-140 -127 -141 -4 0 14 28 41 63 46 60 66 97 110 202 25 60 52 155 52 184 0
12 5 21 10 21 6 0 10 -20 10 -45z m-3547 -5 c-5 -19 -23 -39 -23 -25 0 9 20
45 24 45 2 0 2 -9 -1 -20z m-1231 -106 c3 -56 8 -70 29 -88 14 -12 24 -27 22
-33 -2 -6 5 -14 16 -18 12 -3 21 -15 21 -25 0 -10 5 -22 10 -25 6 -4 10 5 10
19 0 14 4 26 9 26 10 0 6 -78 -4 -89 -4 -3 -11 2 -16 12 -12 21 -33 23 -25 2
7 -21 0 -19 -24 5 -28 28 -45 71 -25 64 8 -3 17 -14 20 -25 4 -10 13 -19 22
-19 12 0 13 3 3 15 -6 8 -9 19 -5 24 3 6 0 8 -9 5 -9 -3 -21 5 -32 23 -10 15
-19 30 -20 32 -2 2 -11 -5 -21 -14 -24 -24 -27 -10 -18 91 5 58 11 84 20 84 9
0 14 -21 17 -66z m2371 -11 c24 -38 87 -142 139 -234 52 -91 106 -183 120
-205 40 -63 118 -203 118 -211 0 -46 -396 601 -424 695 -12 37 0 25 47 -45z
m-1173 53 c0 -3 -4 -8 -10 -11 -5 -3 -10 -1 -10 4 0 6 5 11 10 11 6 0 10 -2
10 -4z m-1220 -186 c0 -5 -4 -10 -10 -10 -5 0 -10 5 -10 10 0 6 5 10 10 10 6
0 10 -4 10 -10z m10 -45 c0 -9 6 -12 18 -8 15 5 15 4 -2 -9 -13 -10 -16 -21
-12 -36 4 -12 12 -22 17 -22 11 0 12 -37 0 -44 -10 -6 -41 85 -41 121 0 13 4
21 10 18 6 -3 10 -13 10 -20z m55 -35 c3 -5 1 -10 -4 -10 -6 0 -11 5 -11 10 0
6 2 10 4 10 3 0 8 -4 11 -10z m116 -24 c-6 -7 -8 -22 -5 -32 6 -18 6 -18 -11
-2 -15 14 -15 18 -4 32 17 19 36 21 20 2z m-81 -49 c0 -5 -7 -2 -15 7 -8 8
-15 23 -15 33 1 14 4 13 15 -7 8 -14 14 -29 15 -33z m40 -22 c0 -5 -5 -3 -10
5 -5 8 -10 20 -10 25 0 6 5 3 10 -5 5 -8 10 -19 10 -25z m-55 -25 c3 -6 -1
-10 -9 -10 -8 0 -18 5 -21 10 -4 6 -11 8 -16 5 -10 -7 -13 8 -3 18 8 7 40 -8
49 -23z m1355 20 c0 -5 -2 -10 -4 -10 -3 0 -8 5 -11 10 -3 6 -1 10 4 10 6 0
11 -4 11 -10z m-1380 -51 c0 -6 -4 -7 -10 -4 -5 3 -10 11 -10 16 0 6 5 7 10 4
6 -3 10 -11 10 -16z m946 -46 c-28 -26 -33 -19 -14 24 17 38 32 47 36 21 2
-13 -6 -30 -22 -45z m2888 -14 c-12 -4 -20 -1 -22 7 -2 8 -7 14 -12 14 -4 0
-10 9 -13 20 -4 17 -1 17 30 -7 31 -24 33 -28 17 -34z m-2837 -81 c1 -184 45
-339 140 -503 71 -123 129 -196 292 -370 72 -77 96 -111 82 -120 -5 -3 -12 4
-16 15 -3 11 -10 20 -14 20 -4 0 -28 19 -52 41 -24 23 -55 48 -68 57 -26 18
-155 170 -216 255 -22 31 -41 55 -42 53 -5 -5 65 -133 108 -198 24 -37 55 -86
69 -109 24 -40 129 -177 176 -229 160 -177 235 -280 203 -280 -5 0 -9 -7 -9
-15 0 -8 -4 -15 -10 -15 -5 0 -10 9 -10 19 0 12 -7 18 -17 17 -10 0 -30 18
-48 45 -28 42 -95 126 -267 333 -37 45 -68 87 -68 94 0 6 -4 12 -8 12 -17 0
-81 102 -145 230 -66 135 -67 136 -82 270 -9 74 -20 167 -26 205 -14 89 -7
233 12 263 7 12 14 22 14 22 0 0 1 -51 2 -112z m2902 48 c9 -11 6 -12 -14 -8
-14 2 -22 8 -19 13 8 13 20 11 33 -5z m-2982 -18 c-3 -8 -6 -5 -6 6 -1 11 2
17 5 13 3 -3 4 -12 1 -19z m-685 -10 c-7 -7 -12 -8 -12 -2 0 14 12 26 19 19 2
-3 -1 -11 -7 -17z m674 -56 c-4 -3 -12 0 -18 6 -9 9 -9 12 0 12 7 0 13 8 13
18 1 10 3 8 6 -6 3 -13 2 -26 -1 -30z m-706 -2 c0 -5 -2 -10 -4 -10 -3 0 -8 5
-11 10 -3 6 -1 10 4 10 6 0 11 -4 11 -10z m697 -71 c3 -135 15 -207 49 -309
20 -58 42 -112 48 -120 7 -8 18 -31 25 -50 21 -58 34 -82 74 -144 38 -59 67
-111 67 -120 0 -3 -8 -2 -17 1 -19 7 -49 41 -70 77 -7 12 -12 17 -13 11 0 -5
-8 5 -17 22 -10 18 -28 44 -40 58 -13 14 -23 27 -23 30 0 3 -10 26 -23 53 -12
26 -31 74 -41 107 -10 33 -21 67 -24 75 -5 18 -10 57 -16 133 -3 33 -7 61 -10
65 -10 10 -6 61 5 67 6 4 8 14 5 22 -4 9 -1 22 5 30 9 10 9 17 1 25 -16 16
-15 41 1 36 8 -3 13 -28 14 -69z m-717 42 c0 -6 -12 -23 -26 -38 -28 -30 -28
-29 10 35 9 14 16 16 16 3z m3718 -53 c8 -8 15 -8 27 2 8 7 15 9 15 4 0 -5
-18 -19 -39 -31 -34 -19 -40 -20 -45 -7 -3 8 0 21 7 29 15 18 20 18 35 3z
m-1678 -9 c0 -7 27 -68 60 -136 33 -69 60 -127 60 -128 0 -2 30 -66 66 -142
63 -131 198 -427 289 -634 l43 -96 -412 3 c-226 3 -456 4 -511 5 -89 0 -98 1
-81 14 10 8 23 16 29 18 6 2 10 18 9 37 0 20 9 50 21 70 12 19 22 37 22 40 0
3 11 23 25 45 15 24 29 69 36 115 10 69 21 100 74 215 27 59 225 515 240 553
12 31 30 44 30 21z m-2090 -29 c0 -5 -2 -10 -4 -10 -3 0 -8 5 -11 10 -3 6 -1
10 4 10 6 0 11 -4 11 -10z m30 -69 c-1 -10 -6 -7 -15 9 -19 33 -18 50 0 26 8
-11 15 -27 15 -35z m2670 8 c0 -42 42 -141 86 -204 25 -36 44 -68 42 -70 -2
-3 -29 14 -59 36 -30 23 -64 46 -77 52 -15 7 -22 17 -19 29 3 9 -2 23 -9 29
-8 7 -13 17 -11 22 2 6 -17 30 -41 55 l-45 43 39 -3 c26 -2 39 -8 39 -18 0 -8
4 -21 9 -29 13 -20 26 7 16 33 -8 22 8 58 22 50 4 -3 8 -14 8 -25z m398 -49
l4 -25 -21 24 c-26 29 -26 33 -3 29 9 -2 19 -14 20 -28z m-3017 -63 c-8 -8
-11 -6 -11 6 0 9 -7 20 -15 25 -10 5 -13 15 -9 26 6 14 10 12 26 -15 14 -22
16 -35 9 -42z m3754 -253 c55 -44 116 -91 135 -104 97 -66 298 -285 369 -403
30 -49 71 -130 71 -139 0 -22 -20 -1 -52 55 -101 176 -272 362 -503 547 -163
130 -200 165 -284 265 -104 123 -95 119 40 -17 68 -69 169 -161 224 -204z
m-3700 180 c10 -26 24 -59 31 -72 7 -14 10 -30 7 -36 -4 -5 -11 0 -16 12 -6
12 -14 22 -18 22 -4 0 -10 13 -14 30 -4 16 -11 32 -16 35 -5 4 -9 20 -9 36 0
40 13 30 35 -27z m3045 -55 c0 -28 -15 -23 -16 6 -1 14 2 22 7 19 5 -3 9 -14
9 -25z m1501 -102 c-10 -9 -11 -8 -5 6 3 10 9 15 12 12 3 -3 0 -11 -7 -18z
m-1518 -81 c6 -14 -1 -26 -14 -26 -4 0 -7 9 -6 20 1 23 12 26 20 6z m-25 -47
c2 -9 1 -10 -5 -3 -4 6 -16 13 -25 17 -10 3 -18 12 -18 18 0 15 43 -13 48 -32z
m69 19 c-3 -8 -6 -5 -6 6 -1 11 2 17 5 13 3 -3 4 -12 1 -19z m-32 -38 c3 -5 1
-10 -4 -10 -6 0 -11 5 -11 10 0 6 2 10 4 10 3 0 8 -4 11 -10z m-2285 -74 c-1
-14 -40 32 -40 47 0 5 9 0 20 -13 11 -13 20 -28 20 -34z m-1165 -65 c3 -6 -3
-9 -14 -8 -11 0 -17 5 -15 9 7 11 22 10 29 -1z m5085 -55 c-4 -11 -13 -22 -20
-24 -7 -3 -10 0 -7 6 4 5 0 15 -8 22 -15 13 -20 42 -8 53 12 13 49 -37 43 -57z
m-3753 14 c3 -11 10 -20 16 -20 6 0 7 -3 4 -7 -7 -6 -47 30 -47 42 0 14 23 2
27 -15z m-103 -6 c9 -24 2 -26 -12 -4 -7 11 -8 20 -3 20 5 0 12 -7 15 -16z
m-1234 -55 c0 -4 -7 -9 -15 -13 -8 -3 -15 -1 -15 4 0 6 -7 10 -15 10 -15 0
-20 12 -10 22 7 7 55 -14 55 -23z m3331 -350 c79 -137 155 -268 168 -292 123
-218 165 -290 247 -418 52 -82 94 -150 94 -153 0 -4 78 -125 120 -186 17 -24
53 -83 67 -109 22 -41 8 -33 -25 13 -17 24 -28 46 -25 50 3 3 1 6 -5 6 -6 0
-17 11 -24 24 -7 13 -39 62 -70 109 -32 47 -58 90 -58 96 0 5 -6 16 -13 23
-19 20 -67 97 -67 107 0 5 -3 11 -7 13 -10 4 -53 65 -53 73 0 4 -11 21 -24 38
-44 59 -418 717 -432 760 -3 12 -14 33 -23 47 -9 14 -22 39 -29 55 -24 58 13
-1 159 -256z m-1961 241 c6 -11 9 -20 8 -20 -2 0 -11 9 -21 20 -9 11 -13 20
-7 20 5 0 14 -9 20 -20z m-1587 -80 c-3 -11 -12 -20 -19 -20 -12 0 -12 4 -2
20 7 11 16 20 19 20 4 0 5 -9 2 -20z m1784 -90 c24 -25 43 -48 43 -52 1 -29
-74 35 -102 88 -19 36 -19 37 -2 24 11 -8 38 -35 61 -60z m3573 52 c0 -4 -9
-8 -20 -9 -11 -1 -18 2 -15 8 7 11 35 12 35 1z m-443 -94 c-3 -8 -6 -5 -6 6
-1 11 2 17 5 13 3 -3 4 -12 1 -19z m674 2 c19 -16 21 -19 7 -20 -25 0 -68 18
-68 30 0 17 36 11 61 -10z m-651 -30 c0 -5 -4 -10 -10 -10 -5 0 -10 5 -10 10
0 6 5 10 10 10 6 0 10 -4 10 -10z m543 -38 c-12 -12 -21 -14 -25 -8 -13 19 -9
26 17 26 24 0 24 -1 8 -18z m-317 -188 c-19 -18 -21 -11 -4 19 7 14 13 17 15
10 3 -7 -3 -20 -11 -29z m-2980 -23 c-5 -8 -56 -3 -56 5 0 2 14 4 31 4 16 0
28 -4 25 -9z m44 -1 c0 -5 -2 -10 -4 -10 -3 0 -8 5 -11 10 -3 6 -1 10 4 10 6
0 11 -4 11 -10z m160 1 c0 -10 -76 -20 -102 -13 -10 2 -16 8 -13 12 7 11 115
11 115 1z m80 -7 c0 -11 -5 -14 -16 -10 -9 3 -22 6 -30 6 -8 0 -14 5 -14 10 0
6 14 10 30 10 21 0 30 -5 30 -16z m550 6 c0 -5 7 -10 15 -10 8 0 15 -6 15 -14
0 -8 6 -17 13 -19 7 -4 6 -6 -4 -6 -9 -1 -22 5 -28 13 -19 23 -74 28 -308 27
-124 0 -225 4 -228 9 -3 5 102 9 260 10 174 0 265 -3 265 -10z m-1975 -97
c-23 -63 -32 -72 -44 -42 -9 23 -10 23 -10 3 -1 -12 -17 -45 -36 -74 -19 -29
-35 -56 -35 -60 0 -4 -8 -10 -17 -14 -10 -3 -23 -9 -30 -12 -9 -4 -9 2 -1 24
10 25 9 35 -5 56 -9 14 -17 28 -17 31 0 2 19 10 43 16 32 8 58 26 101 70 32
33 61 57 64 55 3 -3 -3 -27 -13 -53z m-464 30 c13 -16 12 -17 -3 -4 -17 13
-22 21 -14 21 2 0 10 -8 17 -17z m2519 -39 c0 -8 5 -14 10 -14 6 0 14 -8 17
-17 4 -10 13 -24 21 -32 7 -7 11 -20 8 -27 -3 -8 -1 -13 5 -11 9 2 31 -29 70
-98 17 -31 -43 35 -73 80 -15 22 -30 52 -33 67 -4 16 -11 26 -15 23 -4 -3 -11
3 -15 13 -12 27 -14 43 -4 36 5 -3 9 -12 9 -20z m-2428 -52 c47 -64 75 -122
70 -146 -3 -13 -18 10 -48 69 -23 49 -50 93 -59 97 -8 5 -15 13 -15 18 0 21
17 8 52 -38z m452 -107 c7 -34 -7 -15 -19 25 -5 16 -4 22 3 15 5 -5 12 -23 16
-40z m-1291 5 c-3 -12 -8 -19 -11 -16 -5 6 5 36 12 36 2 0 2 -9 -1 -20z m5883
-104 c60 -60 81 -90 131 -191 55 -111 156 -297 173 -320 4 -5 25 -44 47 -85
58 -107 147 -272 243 -445 124 -225 182 -337 177 -341 -2 -3 -66 105 -142 238
-76 134 -141 245 -145 248 -3 3 -28 48 -54 100 -27 52 -57 107 -67 122 -10 14
-19 29 -19 32 0 3 -14 28 -30 56 -17 29 -62 113 -101 188 -39 76 -78 144 -85
152 -13 13 -15 12 -20 -8 -7 -26 -30 -29 -38 -4 -2 9 -2 -3 0 -27 4 -33 2 -42
-8 -39 -7 3 -13 14 -13 26 0 11 -4 24 -7 27 -4 4 -4 14 -1 23 5 11 3 13 -7 7
-10 -6 -12 0 -7 29 3 21 2 34 -3 31 -5 -3 -18 0 -29 7 -23 14 -37 6 -25 -14
14 -23 14 -45 -1 -80 -16 -37 -17 -33 -15 34 1 26 -4 56 -10 68 -7 12 -13 47
-13 77 -2 44 2 57 17 69 17 12 18 16 5 27 -8 6 -28 29 -43 51 -27 36 -27 37
-6 26 13 -7 56 -45 96 -84z m-4965 9 c5 4 9 1 9 -4 0 -6 -7 -11 -15 -11 -9 0
-15 9 -14 23 1 17 2 18 6 4 2 -9 9 -15 14 -12z m4788 -139 c54 -58 76 -101 46
-90 -8 4 -15 12 -15 20 0 7 -6 17 -13 21 -16 10 -87 98 -87 108 0 10 27 -12
69 -59z m-5824 14 c-3 -5 -11 -10 -16 -10 -6 0 -7 5 -4 10 3 6 11 10 16 10 6
0 7 -4 4 -10z m276 -97 c-12 -20 -14 -14 -5 12 4 9 9 14 11 11 3 -2 0 -13 -6
-23z m-371 -32 c0 -6 -4 -13 -10 -16 -5 -3 -10 1 -10 9 0 9 5 16 10 16 6 0 10
-4 10 -9z m338 -39 c-28 -54 -36 -47 -8 8 12 23 23 40 26 37 2 -2 -5 -23 -18
-45z m5786 -28 c9 -24 7 -28 -9 -14 -17 14 -20 30 -6 30 5 0 12 -7 15 -16z
m-480 -30 c3 -9 6 -25 6 -37 0 -19 -2 -19 -15 7 -8 15 -15 32 -15 37 0 15 17
10 24 -7z m-5346 -19 c-6 -14 -13 -24 -14 -22 -6 6 9 47 17 47 5 0 3 -11 -3
-25z m5862 0 c0 -9 -6 -12 -15 -9 -8 4 -12 10 -9 15 8 14 24 10 24 -6z m-40
-45 c0 -5 -2 -10 -4 -10 -3 0 -8 5 -11 10 -3 6 -1 10 4 10 6 0 11 -4 11 -10z
m-2385 -250 c-21 -33 -256 -174 -422 -252 -59 -28 -109 -52 -111 -53 -7 -6 23
-55 34 -55 7 0 21 14 31 31 23 39 77 66 97 49 11 -8 20 -8 34 -1 10 5 39 11
63 12 24 1 66 13 93 26 27 14 58 26 70 27 12 1 28 6 35 10 8 5 16 4 21 -4 5
-8 15 -4 34 15 22 21 34 26 62 23 19 -2 34 -1 34 3 0 13 64 19 72 7 6 -8 7 -5
3 10 -5 16 -2 22 9 22 21 0 20 24 0 44 -8 9 -12 16 -7 16 4 0 1 5 -7 10 -13 8
-12 12 5 29 17 17 39 21 142 27 l122 7 26 -59 c15 -32 51 -122 82 -199 30 -77
68 -161 84 -186 31 -50 112 -242 124 -297 5 -26 3 -36 -15 -50 -34 -27 -44
-104 -22 -151 l19 -38 -26 -23 c-17 -15 -22 -25 -13 -27 20 -7 14 -57 -12 -92
-40 -55 -162 -162 -180 -159 -6 1 -27 -2 -46 -7 -19 -5 -44 -8 -56 -6 -14 1
-32 -12 -55 -41 -22 -28 -40 -42 -51 -40 -10 2 -18 8 -18 13 0 6 -10 3 -22 -5
-12 -9 -30 -16 -39 -16 -9 0 -24 -9 -34 -20 -14 -15 -20 -17 -26 -8 -6 9 -15
6 -33 -12 -15 -13 -26 -18 -26 -11 0 9 -4 8 -15 -3 -8 -8 -15 -20 -15 -26 0
-6 -4 -9 -8 -6 -4 3 -25 1 -45 -3 -23 -6 -37 -5 -39 1 -2 6 -17 11 -33 11 -59
-1 -115 -7 -115 -14 0 -4 -18 -3 -41 2 -22 5 -44 7 -50 4 -5 -4 -6 2 -2 12 6
16 5 16 -10 4 -13 -10 -17 -10 -17 -1 0 8 -8 10 -24 6 -15 -4 -28 0 -36 9 -7
8 -24 14 -39 13 -15 -1 -33 2 -41 7 -25 16 -41 14 -38 -3 2 -11 15 -18 36 -20
38 -4 43 -22 6 -22 -18 0 -39 13 -63 37 -31 33 -36 35 -39 18 -6 -30 -19 -39
-18 -13 1 21 -3 23 -49 23 -32 0 -54 5 -62 15 -10 13 -12 11 -13 -12 0 -16 -4
-28 -10 -28 -5 0 -10 6 -10 14 0 19 -18 24 -57 18 -37 -5 -56 10 -67 51 -3 15
-13 27 -20 27 -8 0 -21 3 -30 6 -9 3 -16 1 -16 -6 0 -6 5 -8 11 -4 7 4 10 1 7
-6 -8 -24 -25 -21 -59 9 -24 22 -36 28 -45 20 -9 -7 -20 -6 -36 4 -28 18 -122
32 -113 17 11 -18 -3 -11 -31 15 -15 14 -36 25 -47 25 -26 0 -107 39 -107 51
0 4 -7 6 -15 3 -8 -4 -15 -2 -15 4 0 6 -18 30 -40 53 -22 24 -40 52 -40 63 0
11 -3 16 -6 13 -4 -3 -16 5 -27 19 -19 25 -19 27 -3 56 23 38 14 46 -31 24
-20 -9 -39 -13 -42 -9 -3 5 -33 14 -65 21 -32 6 -61 14 -63 16 -3 2 -9 24 -14
47 -13 54 -26 70 -53 64 -17 -4 -32 10 -76 66 -154 198 -158 204 -164 270 -2
22 -14 50 -29 68 -42 50 -73 129 -101 252 -14 64 -26 121 -26 128 0 16 26 13
45 -5 15 -15 17 -15 30 2 12 17 34 19 252 24 441 9 1814 9 1808 0z m165 -104
c0 -3 -4 -8 -10 -11 -5 -3 -10 -1 -10 4 0 6 5 11 10 11 6 0 10 -2 10 -4z m735
-195 c-2 -2 -11 3 -19 12 -8 8 -12 17 -9 21 3 3 12 -2 19 -12 7 -9 11 -19 9
-21z m23 -43 c16 -42 16 -42 3 -46 -6 -2 -9 3 -5 11 3 8 -2 17 -10 20 -9 4
-16 16 -16 27 0 30 14 24 28 -12z m46 -94 c3 -8 2 -12 -4 -9 -6 3 -10 1 -10
-6 0 -7 -2 -10 -5 -7 -5 5 4 38 10 38 2 0 6 -7 9 -16z m49 -101 c6 -9 6 -13
-1 -13 -14 0 -33 26 -25 34 4 4 1 11 -6 15 -8 5 -10 14 -5 22 5 9 10 4 17 -16
5 -17 14 -36 20 -42z m-3374 -195 c39 -54 71 -101 71 -104 0 -4 8 -13 18 -20
9 -7 12 -14 5 -14 -13 0 -78 82 -134 170 -76 118 -62 106 40 -32z m341 -13
c16 -19 0 -19 -26 0 -16 12 -16 14 -3 15 9 0 22 -7 29 -15z m5170 -15 c6 -11
8 -20 6 -20 -3 0 -10 9 -16 20 -6 11 -8 20 -6 20 3 0 10 -9 16 -20z m-5035
-75 c25 -19 52 -38 59 -42 17 -10 39 -53 32 -61 -3 -3 -30 19 -59 49 -29 30
-60 58 -70 62 -15 6 -25 27 -12 27 3 0 25 -16 50 -35z m-775 -40 c13 -14 21
-25 18 -25 -2 0 -15 11 -28 25 -13 14 -21 25 -18 25 2 0 15 -11 28 -25z m450
-50 c0 -8 -4 -15 -9 -15 -5 0 -11 7 -15 15 -3 9 0 15 9 15 8 0 15 -7 15 -15z
m50 -47 c19 -21 26 -38 15 -38 -9 0 -55 43 -55 52 0 15 19 8 40 -14z m369 -10
c11 -18 11 -20 -4 -14 -9 3 -23 6 -30 6 -8 0 -11 7 -8 19 6 23 23 19 42 -11z
m-306 -42 c9 -7 17 -19 17 -26 0 -10 -3 -10 -15 0 -8 7 -21 10 -29 7 -10 -4
-12 0 -9 14 6 22 12 23 36 5z m4834 -22 c39 -15 58 -34 33 -34 -5 0 -10 4 -10
9 0 5 -16 12 -35 15 -19 4 -37 11 -40 16 -9 14 3 12 52 -6z m-1472 -39 c-22
-19 -44 -35 -49 -35 -6 0 9 18 34 39 55 48 68 45 15 -4z m-3285 -6 c0 -6 -7
-6 -20 1 -15 8 -20 8 -20 -1 0 -6 9 -13 20 -16 11 -3 20 -9 20 -14 0 -5 5 -9
11 -9 6 0 9 7 5 15 -3 9 27 -3 79 -30 46 -25 91 -45 99 -45 22 0 20 -17 -1
-24 -17 -4 -76 -7 -125 -6 -13 0 -46 0 -75 1 -35 0 -53 5 -57 14 -3 9 -12 12
-22 8 -13 -5 -15 -3 -10 8 4 8 -1 4 -10 -8 -19 -26 -39 -31 -30 -8 8 21 -3 19
-22 -5 -13 -16 -24 -19 -49 -14 -36 7 -45 24 -13 24 11 0 20 5 20 11 0 6 7 9
15 5 8 -3 28 0 43 6 33 13 72 16 78 6 6 -9 65 -1 98 12 19 8 18 9 -8 9 -48 1
-109 71 -73 84 15 5 47 -10 47 -24z m4905 -10 c11 -4 30 -11 43 -14 12 -4 22
-10 22 -15 0 -10 -48 2 -92 24 -17 9 -37 16 -43 16 -7 0 -15 7 -18 15 -5 12 0
12 31 -2 20 -9 46 -19 57 -24z m95 -40 c0 -6 9 -9 20 -6 11 3 20 1 20 -4 0
-10 -21 -12 -44 -3 -18 7 -22 24 -6 24 6 0 10 -5 10 -11z m-1840 -34 c0 -8 -4
-15 -10 -15 -5 0 -10 7 -10 15 0 8 5 15 10 15 6 0 10 -7 10 -15z m-56 -24 c6
-9 -26 -21 -54 -21 -11 1 -10 4 4 15 22 17 42 19 50 6z m-2460 -186 c38 -8 44
-16 23 -34 -11 -8 -27 -5 -68 12 -140 59 -195 107 -65 57 41 -16 90 -32 110
-35z m516 55 c0 -5 -2 -10 -4 -10 -3 0 -8 5 -11 10 -3 6 -1 10 4 10 6 0 11 -4
11 -10z m1410 -18 c0 -5 -13 -7 -30 -4 -16 2 -30 6 -30 8 0 2 14 4 30 4 17 0
30 -4 30 -8z m113 -19 c15 -3 27 -10 27 -15 0 -6 -8 -7 -17 -3 -10 3 -39 11
-65 17 -27 6 -48 15 -48 19 0 4 17 2 38 -3 20 -5 49 -12 65 -15z m57 -3 c0 -5
-4 -10 -10 -10 -5 0 -10 5 -10 10 0 6 5 10 10 10 6 0 10 -4 10 -10z m-470 -10
c0 -5 -4 -10 -10 -10 -5 0 -10 5 -10 10 0 6 5 10 10 10 6 0 10 -4 10 -10z
m118 -30 c18 -21 104 -41 185 -44 26 0 47 -2 47 -3 0 -1 -20 -12 -44 -23 -34
-15 -51 -18 -69 -11 -14 5 -34 7 -46 4 -12 -3 -21 -1 -21 6 0 7 -9 9 -25 5
-19 -5 -27 -2 -32 12 -3 11 -10 21 -13 24 -4 3 -10 15 -14 28 -9 28 10 29 32
2z m-978 -5 c0 -8 -4 -15 -9 -15 -13 0 -22 16 -14 24 11 11 23 6 23 -9z m30 5
c0 -5 -5 -10 -11 -10 -5 0 -7 5 -4 10 3 6 8 10 11 10 2 0 4 -4 4 -10z m760 6
c0 -3 -4 -8 -10 -11 -5 -3 -10 -1 -10 4 0 6 5 11 10 11 6 0 10 -2 10 -4z
m-1065 -61 c55 -8 148 -15 207 -15 109 0 138 -5 138 -22 0 -5 16 -46 35 -90
20 -44 33 -83 30 -86 -6 -6 -45 12 -86 40 -38 25 -129 44 -139 28 -10 -16 -41
-19 -65 -7 -11 6 -26 10 -34 8 -7 -1 -25 9 -40 23 -14 13 -38 28 -53 31 -16 4
-28 11 -28 16 0 5 -7 9 -16 9 -12 0 -134 86 -134 95 0 1 19 -2 43 -6 23 -5 87
-15 142 -24z m2235 -106 c0 -25 -108 -103 -234 -169 -334 -175 -702 -209 -976
-91 -91 39 -224 113 -235 131 -6 9 49 -5 161 -41 34 -11 92 -22 130 -25 38 -2
79 -7 92 -10 15 -3 22 0 22 12 0 13 6 14 33 8 49 -12 129 -5 204 17 38 11 73
21 80 22 7 2 16 6 19 10 11 10 34 8 34 -3 0 -5 -7 -7 -15 -4 -23 9 -18 -13 7
-30 12 -9 16 -16 9 -16 -8 0 -11 -6 -7 -16 4 -12 2 -15 -9 -10 -24 9 -43 -3
-38 -25 7 -24 19 -24 32 -1 6 9 11 11 11 5 0 -18 20 -16 20 2 0 8 5 15 10 15
6 0 10 -7 10 -15 0 -18 4 -18 47 -3 18 7 33 19 33 28 0 12 2 13 9 1 8 -12 17
-11 55 7 25 12 50 22 55 22 5 0 12 6 14 13 4 9 8 9 15 -2 11 -15 32 -7 32 12
0 7 9 18 21 25 18 11 23 11 33 -3 10 -14 23 -9 116 39 58 29 125 65 150 80 50
29 60 31 60 15z m-1467 -16 c-7 -2 -19 -2 -25 0 -7 3 -2 5 12 5 14 0 19 -2 13
-5z m938 -76 c-10 -9 -11 -8 -5 6 3 10 9 15 12 12 3 -3 0 -11 -7 -18z m-106
-37 c3 -6 -1 -7 -9 -4 -18 7 -21 14 -7 14 6 0 13 -4 16 -10z m85 -26 c0 -8 -5
-12 -10 -9 -6 4 -8 11 -5 16 9 14 15 11 15 -7z m-75 -4 c3 -5 -1 -10 -9 -10
-9 0 -16 5 -16 10 0 6 4 10 9 10 6 0 13 -4 16 -10z m43 -30 c-7 -10 -14 -18
-15 -16 -6 6 9 36 18 36 5 0 4 -9 -3 -20z m1834 -232 c-7 -7 -12 -8 -12 -2 0
14 12 26 19 19 2 -3 -1 -11 -7 -17z m-538 -6 c2 -4 -4 -8 -15 -8 -10 0 -19 4
-19 8 0 4 6 8 14 8 8 0 17 -4 20 -8z m-224 -32 c0 -5 -8 -10 -17 -10 -15 0
-16 2 -3 10 19 12 20 12 20 0z m656 -54 c3 -8 12 -12 20 -9 18 7 18 -11 0 -26
-12 -10 -18 -7 -31 18 -9 19 -11 31 -5 31 6 0 13 -6 16 -14z m-3546 -56 c0 -5
-2 -10 -4 -10 -3 0 -8 5 -11 10 -3 6 -1 10 4 10 6 0 11 -4 11 -10z m3746 -207
c-6 -30 -26 -56 -26 -32 0 26 12 59 21 59 5 0 7 -12 5 -27z"/>
<path d="M3695 7930 c-10 -11 -13 -20 -8 -20 13 0 38 29 31 35 -3 3 -13 -4
-23 -15z"/>
<path d="M3635 7880 c-3 -5 -1 -10 4 -10 6 0 11 5 11 10 0 6 -2 10 -4 10 -3 0
-8 -4 -11 -10z"/>
<path d="M3513 7753 c-7 -3 -13 -12 -13 -21 0 -15 2 -15 17 1 18 18 16 27 -4
20z"/>
<path d="M3403 7665 c-8 -22 6 -33 17 -15 13 20 12 30 0 30 -6 0 -13 -7 -17
-15z"/>
<path d="M3290 7630 c0 -5 5 -10 10 -10 6 0 10 5 10 10 0 6 -4 10 -10 10 -5 0
-10 -4 -10 -10z"/>
<path d="M3330 7560 c0 -5 5 -10 10 -10 6 0 10 5 10 10 0 6 -4 10 -10 10 -5 0
-10 -4 -10 -10z"/>
<path d="M3140 7539 c0 -5 5 -7 10 -4 6 3 10 8 10 11 0 2 -4 4 -10 4 -5 0 -10
-5 -10 -11z"/>
<path d="M3095 7520 c-3 -5 1 -10 9 -10 9 0 16 5 16 10 0 6 -4 10 -9 10 -6 0
-13 -4 -16 -10z"/>
<path d="M3138 7493 c7 -3 16 -2 19 1 4 3 -2 6 -13 5 -11 0 -14 -3 -6 -6z"/>
<path d="M3091 7446 c-8 -9 -11 -19 -7 -23 9 -9 29 13 24 27 -2 8 -8 7 -17 -4z"/>
<path d="M3147 7439 c-17 -15 -17 -20 -4 -44 11 -22 15 -24 20 -12 3 9 2 19
-3 22 -6 4 -10 11 -10 16 0 6 4 8 9 4 13 -7 22 8 13 22 -5 6 -13 4 -25 -8z"/>
<path d="M3120 7340 c0 -5 5 -10 10 -10 6 0 10 5 10 10 0 6 -4 10 -10 10 -5 0
-10 -4 -10 -10z"/>
<path d="M3033 7305 c-12 -39 -5 -46 15 -15 8 13 9 27 4 36 -6 11 -11 7 -19
-21z"/>
<path d="M3187 7313 c-4 -3 -7 -11 -7 -17 0 -6 5 -5 12 2 6 6 9 14 7 17 -3 3
-9 2 -12 -2z"/>
<path d="M3240 7291 c0 -11 4 -21 9 -21 18 0 21 18 6 30 -13 10 -15 9 -15 -9z"/>
<path d="M2986 7255 c-3 -9 0 -15 9 -15 8 0 15 7 15 15 0 8 -4 15 -9 15 -5 0
-11 -7 -15 -15z"/>
<path d="M3220 7239 c0 -5 5 -7 10 -4 6 3 10 8 10 11 0 2 -4 4 -10 4 -5 0 -10
-5 -10 -11z"/>
<path d="M3022 7183 c2 -10 10 -18 18 -18 8 0 16 8 18 18 2 12 -3 17 -18 17
-15 0 -20 -5 -18 -17z"/>
<path d="M3157 7140 c-3 -11 -1 -20 4 -20 5 0 9 9 9 20 0 11 -2 20 -4 20 -2 0
-6 -9 -9 -20z"/>
<path d="M3068 7083 c7 -3 16 -2 19 1 4 3 -2 6 -13 5 -11 0 -14 -3 -6 -6z"/>
<path d="M3140 7071 c0 -6 5 -13 10 -16 6 -3 10 1 10 9 0 9 -4 16 -10 16 -5 0
-10 -4 -10 -9z"/>
<path d="M3050 7014 c0 -6 40 -44 46 -44 2 0 -2 11 -8 25 -10 22 -38 36 -38
19z"/>
<path d="M3170 6890 c0 -5 5 -10 11 -10 5 0 7 5 4 10 -3 6 -8 10 -11 10 -2 0
-4 -4 -4 -10z"/>
<path d="M4836 7664 c-7 -18 0 -34 15 -34 5 0 9 11 9 25 0 28 -15 34 -24 9z"/>
<path d="M4321 7214 c0 -11 3 -14 6 -6 3 7 2 16 -1 19 -3 4 -6 -2 -5 -13z"/>
<path d="M4240 7105 c0 -9 -9 -15 -24 -15 -13 0 -27 -7 -30 -16 -17 -44 4 -45
44 -4 31 31 38 50 20 50 -5 0 -10 -7 -10 -15z"/>
<path d="M4078 6785 c-3 -13 -2 -22 2 -20 11 7 20 45 10 45 -4 0 -10 -11 -12
-25z"/>
<path d="M5880 5820 c0 -5 5 -10 11 -10 5 0 7 5 4 10 -3 6 -8 10 -11 10 -2 0
-4 -4 -4 -10z"/>
<path d="M5730 5786 c0 -2 7 -9 15 -16 13 -11 14 -10 9 4 -5 14 -24 23 -24 12z"/>
<path d="M3631 6004 c0 -11 3 -14 6 -6 3 7 2 16 -1 19 -3 4 -6 -2 -5 -13z"/>
<path d="M3636 5972 c-2 -4 -1 -14 5 -22 7 -12 9 -10 9 8 0 23 -5 28 -14 14z"/>
<path d="M4735 5731 c-3 -6 1 -11 9 -11 9 0 15 -5 14 -11 -2 -6 3 -14 10 -16
10 -4 13 2 10 18 -3 25 -31 38 -43 20z"/>
<path d="M3880 3703 c0 -15 57 -78 120 -133 73 -62 90 -66 121 -28 15 19 16
19 40 -5 88 -86 159 -122 159 -80 0 8 5 11 12 7 7 -4 8 -3 4 5 -6 10 -135 74
-286 141 -30 14 -80 42 -112 62 -32 21 -58 35 -58 31z"/>
<path d="M3560 3487 c0 -19 52 -65 73 -64 21 0 21 2 1 21 -14 15 -14 16 0 16
24 0 19 15 -8 28 -19 8 -26 8 -30 -1 -5 -9 -7 -9 -12 1 -8 16 -24 16 -24 -1z"/>
<path d="M6143 3393 c9 -9 19 -14 23 -11 10 10 -6 28 -24 28 -15 0 -15 -1 1
-17z"/>
<path d="M6226 2695 c-3 -9 0 -15 9 -15 16 0 20 16 6 24 -5 3 -11 -1 -15 -9z"/>
<path d="M5806 2503 c-9 -9 -7 -43 2 -43 10 0 32 21 32 31 0 10 -27 19 -34 12z"/>
<path d="M5880 2450 c0 -5 5 -10 11 -10 5 0 7 5 4 10 -3 6 -8 10 -11 10 -2 0
-4 -4 -4 -10z"/>
<path d="M4750 2289 c0 -7 26 -19 41 -19 5 0 9 6 9 14 0 9 -10 13 -25 12 -14
0 -25 -4 -25 -7z"/>
<path d="M6208 2043 c6 -2 18 -2 25 0 6 3 1 5 -13 5 -14 0 -19 -2 -12 -5z"/>
<path d="M6171 2021 c-8 -5 -20 -7 -28 -4 -8 3 -13 -2 -13 -16 0 -12 -6 -21
-15 -21 -29 0 -15 -18 19 -24 36 -7 86 1 86 13 0 4 -9 17 -19 28 -11 12 -17
24 -14 27 9 9 0 7 -16 -3z"/>
<path d="M6027 1994 c-3 -3 -22 -6 -41 -6 -20 0 -36 -4 -36 -9 0 -5 -12 -7
-27 -3 -22 4 -25 3 -13 -5 8 -6 31 -11 51 -11 19 0 39 -4 45 -9 10 -10 64 -3
64 9 0 11 -36 41 -43 34z"/>
<path d="M5426 9291 c-3 -5 1 -11 9 -15 8 -3 15 -1 15 4 0 13 -18 22 -24 11z"/>
<path d="M5455 9240 c3 -5 11 -10 16 -10 6 0 7 5 4 10 -3 6 -11 10 -16 10 -6
0 -7 -4 -4 -10z"/>
<path d="M5184 9102 c-15 -38 -8 -55 17 -41 12 6 17 15 12 22 -4 7 -6 20 -5
30 5 27 -13 20 -24 -11z"/>
<path d="M5151 8989 c-19 -64 -21 -80 -11 -98 7 -13 9 -10 10 12 0 37 17 67
36 67 10 0 14 6 11 15 -7 18 9 30 17 13 3 -7 5 -4 3 7 -1 13 -11 21 -28 23
-22 3 -27 -2 -38 -39z"/>
<path d="M5680 8923 c0 -4 5 -15 11 -23 8 -11 12 -12 16 -2 2 6 9 9 15 6 6 -4
9 -1 6 7 -5 15 -48 26 -48 12z"/>
<path d="M5747 8895 c-10 -14 -13 -26 -7 -30 5 -3 10 -2 10 4 0 5 9 13 21 16
11 4 18 12 16 18 -6 20 -22 17 -40 -8z"/>
<path d="M5320 8861 c-10 -19 -8 -21 15 -21 19 0 26 5 23 17 -5 25 -25 27 -38
4z"/>
<path d="M5688 8873 c7 -3 16 -2 19 1 4 3 -2 6 -13 5 -11 0 -14 -3 -6 -6z"/>
<path d="M5151 8860 c0 -23 25 -64 33 -52 3 6 1 14 -5 17 -6 4 -14 17 -19 29
-5 12 -9 15 -9 6z"/>
<path d="M4247 8776 c-15 -22 -15 -25 2 -40 10 -9 26 -16 37 -16 11 0 29 -6
40 -14 16 -13 17 -18 7 -35 -8 -13 -9 -22 -3 -26 6 -3 10 1 10 9 0 9 8 16 17
16 9 0 13 3 10 7 -4 3 0 14 9 24 27 30 14 53 -35 61 -25 4 -51 3 -62 -2 -12
-7 -20 -7 -24 1 -4 6 2 13 14 16 23 6 29 23 7 23 -7 0 -21 -11 -29 -24z"/>
<path d="M4426 8705 c-7 -20 9 -28 23 -11 9 10 8 15 -3 19 -8 3 -17 -1 -20 -8z"/>
<path d="M3981 8701 c-8 -5 -10 -14 -5 -22 6 -12 5 -12 -8 -1 -12 10 -18 10
-27 -2 -7 -8 -8 -16 -4 -18 11 -6 81 -1 117 8 22 5 27 4 21 -6 -10 -17 16 -32
32 -18 11 9 10 15 -8 34 -12 12 -27 20 -34 18 -7 -3 -16 -1 -20 5 -10 17 -35
13 -36 -6 0 -17 -1 -17 -7 -1 -5 12 -12 14 -21 9z"/>
<path d="M4296 8691 c-3 -4 -10 -20 -15 -35 -9 -22 -8 -26 7 -26 14 0 18 9 19
35 1 36 -2 42 -11 26z"/>
<path d="M5240 8690 c0 -5 5 -10 11 -10 5 0 7 5 4 10 -3 6 -8 10 -11 10 -2 0
-4 -4 -4 -10z"/>
<path d="M3840 8660 c0 -5 5 -10 10 -10 6 0 10 5 10 10 0 6 -4 10 -10 10 -5 0
-10 -4 -10 -10z"/>
<path d="M6190 8658 c0 -18 18 -34 28 -24 3 4 -2 14 -11 23 -16 16 -17 16 -17
1z"/>
<path d="M4140 8640 c0 -5 5 -10 11 -10 5 0 7 5 4 10 -3 6 -8 10 -11 10 -2 0
-4 -4 -4 -10z"/>
<path d="M5496 8580 c-17 -6 -18 -7 -3 -13 9 -3 19 -2 23 4 9 15 2 18 -20 9z"/>
<path d="M6850 8476 c0 -22 3 -27 11 -19 8 8 8 16 0 30 -9 16 -10 14 -11 -11z"/>
<path d="M5370 8460 c0 -5 5 -10 11 -10 5 0 7 -5 3 -12 -4 -7 -3 -8 4 -4 17
10 15 36 -3 36 -8 0 -15 -4 -15 -10z"/>
<path d="M3390 8429 c0 -5 5 -7 10 -4 6 3 10 8 10 11 0 2 -4 4 -10 4 -5 0 -10
-5 -10 -11z"/>
<path d="M5663 8274 c-17 -26 -19 -34 -8 -34 8 0 24 9 34 19 15 15 17 23 8 34
-10 13 -15 10 -34 -19z"/>
<path d="M6145 8200 c3 -5 -1 -10 -10 -10 -12 0 -11 -6 7 -34 27 -41 76 -63
96 -42 20 20 6 36 -29 36 -17 0 -28 4 -25 8 3 5 -4 19 -15 30 -20 23 -35 30
-24 12z m20 -30 c3 -5 1 -10 -4 -10 -6 0 -11 5 -11 10 0 6 2 10 4 10 3 0 8 -4
11 -10z"/>
<path d="M5601 8154 c0 -11 3 -14 6 -6 3 7 2 16 -1 19 -3 4 -6 -2 -5 -13z"/>
<path d="M5547 8110 c15 -28 29 -46 31 -41 5 16 -31 84 -46 89 -8 2 -2 -17 15
-48z"/>
<path d="M5706 8131 c-4 -7 -5 -15 -2 -18 9 -9 19 4 14 18 -4 11 -6 11 -12 0z"/>
<path d="M6270 8130 c0 -5 5 -10 10 -10 6 0 10 5 10 10 0 6 -4 10 -10 10 -5 0
-10 -4 -10 -10z"/>
<path d="M6356 8075 c-3 -9 4 -25 15 -36 16 -16 23 -18 35 -8 21 18 17 46 -8
53 -33 8 -35 8 -42 -9z"/>
<path d="M5648 8062 c-3 -9 -1 -26 3 -37 8 -21 9 -19 14 33 3 26 -11 30 -17 4z"/>
<path d="M6493 8063 c-22 -4 -25 -8 -27 -34 -1 -6 13 -17 31 -24 31 -13 32
-13 52 20 10 18 17 36 14 39 -7 6 -34 6 -70 -1z"/>
<path d="M5625 7980 c3 -5 8 -10 11 -10 2 0 4 5 4 10 0 6 -5 10 -11 10 -5 0
-7 -4 -4 -10z"/>
<path d="M5681 7934 c0 -11 3 -14 6 -6 3 7 2 16 -1 19 -3 4 -6 -2 -5 -13z"/>
<path d="M6605 7900 c-8 -13 25 -61 36 -54 5 3 6 11 2 17 -8 12 -9 17 -12 37
-1 13 -18 13 -26 0z"/>
<path d="M5798 7868 c12 -12 24 -19 28 -15 8 8 -21 37 -38 37 -7 0 -4 -9 10
-22z"/>
<path d="M5777 7793 c-10 -9 13 -33 32 -32 10 0 11 2 4 6 -7 2 -13 11 -13 19
0 15 -12 19 -23 7z"/>
<path d="M5746 7725 c4 -8 10 -15 15 -15 4 0 6 7 3 15 -4 8 -10 15 -15 15 -4
0 -6 -7 -3 -15z"/>
<path d="M6006 7655 c4 -8 11 -15 16 -15 6 0 5 6 -2 15 -7 8 -14 15 -16 15 -2
0 -1 -7 2 -15z"/>
<path d="M5836 7577 c3 -10 9 -15 12 -12 3 3 0 11 -7 18 -10 9 -11 8 -5 -6z"/>
<path d="M6090 7499 c0 -5 -4 -7 -10 -4 -5 3 -15 3 -21 -1 -16 -10 10 -24 45
-24 22 0 27 4 22 16 -3 9 -6 18 -6 20 0 2 -7 4 -15 4 -8 0 -15 -5 -15 -11z"/>
<path d="M1938 7378 c4 -83 10 -108 26 -108 8 0 16 -7 19 -14 9 -23 68 -30
102 -12 17 9 35 16 42 16 29 0 21 22 -13 36 -21 9 -67 45 -103 80 -36 35 -68
64 -71 64 -3 0 -4 -28 -2 -62z"/>
<path d="M7786 7433 c-12 -12 -6 -33 9 -33 8 0 15 6 15 14 0 17 -14 28 -24 19z"/>
<path d="M5920 7415 c0 -2 10 -20 23 -38 12 -19 27 -43 34 -53 11 -18 12 -18
12 2 1 11 -8 29 -19 39 -11 10 -20 24 -20 30 0 7 -7 15 -15 19 -8 3 -15 3 -15
1z"/>
<path d="M6133 7373 c-24 -9 -13 -23 16 -21 19 1 27 7 24 15 -5 13 -18 15 -40
6z"/>
<path d="M7822 7371 c-11 -7 -11 -9 1 -14 16 -6 27 0 27 15 0 10 -11 10 -28
-1z"/>
<path d="M5670 7331 c0 -23 15 -86 30 -126 22 -59 107 -213 130 -235 3 -3 14
-18 24 -35 11 -16 21 -24 23 -18 3 7 11 9 20 6 11 -4 14 -2 11 8 -3 8 -10 14
-16 14 -7 0 -12 3 -12 8 0 4 -9 16 -20 27 -11 11 -20 26 -20 34 0 7 -7 19 -15
26 -8 7 -15 19 -15 28 0 8 -7 23 -15 32 -24 27 -72 123 -79 160 -3 19 -15 49
-26 65 -19 29 -20 29 -20 6z"/>
<path d="M6895 7339 c-4 -6 -5 -13 -2 -16 7 -7 27 6 27 18 0 12 -17 12 -25 -2z"/>
<path d="M7493 7343 c-9 -3 -9 -11 3 -29 27 -40 67 -25 42 16 -13 20 -22 23
-45 13z"/>
<path d="M6205 7280 c-3 -5 3 -10 15 -10 12 0 18 5 15 10 -3 6 -10 10 -15 10
-5 0 -12 -4 -15 -10z"/>
<path d="M6015 7260 c3 -5 8 -10 11 -10 2 0 4 5 4 10 0 6 -5 10 -11 10 -5 0
-7 -4 -4 -10z"/>
<path d="M6236 7251 c-3 -5 1 -11 9 -15 8 -3 15 -1 15 4 0 13 -18 22 -24 11z"/>
<path d="M6035 7230 c3 -5 8 -10 11 -10 2 0 4 5 4 10 0 6 -5 10 -11 10 -5 0
-7 -4 -4 -10z"/>
<path d="M6271 7215 c0 -5 6 -21 14 -35 8 -14 14 -20 14 -15 0 6 -6 21 -14 35
-8 14 -14 21 -14 15z"/>
<path d="M6050 7200 c0 -5 5 -10 11 -10 5 0 7 5 4 10 -3 6 -8 10 -11 10 -2 0
-4 -4 -4 -10z"/>
<path d="M7005 7129 c-11 -17 1 -21 15 -4 8 9 8 15 2 15 -6 0 -14 -5 -17 -11z"/>
<path d="M6330 7098 c0 -10 5 -18 11 -18 8 0 7 -5 -1 -15 -14 -17 -8 -31 9
-20 15 9 14 28 -4 51 -13 17 -14 17 -15 2z"/>
<path d="M6340 7001 c0 -14 5 -18 19 -14 12 3 17 11 14 19 -8 21 -33 17 -33
-5z"/>
<path d="M2406 6943 c-4 -9 -2 -19 4 -23 6 -4 8 -15 4 -26 -5 -11 3 -6 19 12
15 18 27 37 27 43 0 18 -47 13 -54 -6z"/>
<path d="M6250 6864 c0 -3 11 -19 25 -36 17 -20 25 -25 25 -13 0 8 -7 18 -15
21 -8 4 -15 12 -15 20 0 8 -4 14 -10 14 -5 0 -10 -3 -10 -6z"/>
<path d="M6060 6740 c0 -5 5 -10 10 -10 6 0 10 5 10 10 0 6 -4 10 -10 10 -5 0
-10 -4 -10 -10z"/>
<path d="M6086 6723 c-12 -12 -6 -22 9 -17 8 4 15 1 15 -5 0 -6 5 -11 10 -11
6 0 10 3 10 8 0 11 -37 32 -44 25z"/>
<path d="M6142 6660 c14 -22 24 -19 15 5 -4 8 -11 15 -17 15 -6 0 -6 -7 2 -20z"/>
<path d="M6188 6652 c-10 -2 -18 -7 -18 -12 0 -5 7 -7 16 -3 9 3 19 0 24 -7 4
-6 16 -10 26 -8 18 5 18 5 -1 13 -11 5 -22 11 -25 15 -3 3 -13 4 -22 2z"/>
<path d="M6985 5940 c3 -5 11 -10 16 -10 6 0 7 5 4 10 -3 6 -11 10 -16 10 -6
0 -7 -4 -4 -10z"/>
<path d="M7087 5887 c-6 -15 10 -37 26 -37 12 0 4 43 -9 47 -6 2 -14 -3 -17
-10z"/>
<path d="M6590 5505 c0 -5 5 -17 10 -25 5 -8 10 -10 10 -5 0 6 -5 17 -10 25
-5 8 -10 11 -10 5z"/>
<path d="M6760 5266 c0 -20 120 -239 127 -232 3 3 -18 49 -47 102 -53 101 -80
144 -80 130z"/>
<path d="M7310 5220 c0 -5 5 -10 11 -10 5 0 7 5 4 10 -3 6 -8 10 -11 10 -2 0
-4 -4 -4 -10z"/>
<path d="M7760 5160 c0 -5 5 -10 10 -10 6 0 10 5 10 10 0 6 -4 10 -10 10 -5 0
-10 -4 -10 -10z"/>
<path d="M2180 4860 c0 -5 5 -10 10 -10 6 0 10 5 10 10 0 6 -4 10 -10 10 -5 0
-10 -4 -10 -10z"/>
<path d="M1870 4276 c0 -22 3 -27 11 -19 8 8 8 16 0 30 -9 16 -10 14 -11 -11z"/>
<path d="M8685 1879 c-4 -6 -5 -13 -2 -16 7 -7 27 6 27 18 0 12 -17 12 -25 -2z"/>
<path d="M8750 1839 c0 -5 5 -7 10 -4 6 3 10 8 10 11 0 2 -4 4 -10 4 -5 0 -10
-5 -10 -11z"/>
<path d="M3482 1440 c-8 -13 -23 -20 -44 -20 l-31 0 21 -23 c12 -13 22 -35 22
-50 0 -32 10 -35 28 -7 8 13 23 20 42 20 34 0 39 14 10 30 -13 7 -20 21 -20
40 0 35 -10 38 -28 10z"/>
<path d="M8380 1420 c0 -16 5 -30 10 -30 6 0 10 14 10 30 0 17 -4 30 -10 30
-5 0 -10 -13 -10 -30z"/>
<path d="M8430 1411 c0 -7 -7 -19 -15 -28 -17 -16 -12 -33 11 -33 8 0 14 -5
14 -11 0 -5 4 -7 10 -4 13 8 7 62 -8 77 -9 9 -12 9 -12 -1z"/>
<path d="M1576 1298 c-5 -10 -17 -18 -27 -18 -20 0 -26 -15 -9 -25 6 -3 10
-16 10 -27 0 -20 1 -20 18 -5 10 10 24 17 32 17 9 0 9 4 2 13 -5 6 -12 23 -14
37 -4 21 -6 22 -12 8z"/>
<path d="M8379 1293 c-9 -2 -19 -14 -21 -27 -4 -19 -1 -22 20 -20 25 3 44 21
39 38 -4 12 -17 15 -38 9z"/>
<path d="M1510 1203 c0 -6 -6 -13 -13 -15 -8 -2 -11 -11 -8 -23 5 -17 9 -19
26 -10 18 9 19 13 8 35 -7 14 -13 20 -13 13z"/>
<path d="M1501 1058 c-6 -24 -24 -94 -41 -156 -35 -130 -35 -132 -15 -132 8 0
19 17 25 43 6 23 24 89 41 146 16 57 29 112 29 122 0 36 -28 19 -39 -23z"/>
</g>
</svg>
